<svg xmlns="http://www.w3.org/2000/svg" width="500" viewBox="0 0 375 375" height="500" version="1.0">
  <defs>
    <clipPath id="a">
      <path d="M11 172h353v152.7H11Zm0 0"/>
    </clipPath>
    <clipPath id="b">
      <path d="M11 50.2h353V200H11Zm0 0"/>
    </clipPath>
  </defs>
  <path fill="#f5b11d" d="M374.8 87.6v199.6a36.9 36.9 0 0 1-11 26.5l-1.5-1.5L225 174.9l-2.2-2.7L362.3 62.6l1.5-1.5a37.3 37.3 0 0 1 11 26.5ZM12.7 62.6l139.5 109.6-2.2 2.7L12.7 312.2l-1.5 1.5a37.3 37.3 0 0 1-11-26.5V87.6a37 37 0 0 1 11-26.5Zm0 0"/>
  <g clip-path="url(#a)">
    <path fill="#ffd138" d="m225 175 137.3 137.2 1.5 1.5a37.5 37.5 0 0 1-26.5 11H37.7a37.3 37.3 0 0 1-26.5-11l1.5-1.5L150 174.9l2.2-2.7 35.3 27.7 35.3-27.7Zm0 0"/>
  </g>
  <g clip-path="url(#b)">
    <path fill="#ffea47" d="M337.3 50.2a37.3 37.3 0 0 1 26.5 11l-1.5 1.4-139.5 109.6-35.3 27.7-35.3-27.7L12.7 62.6l-1.5-1.5a37.5 37.5 0 0 1 26.5-11Zm0 0"/>
  </g>
</svg>
