<svg width="16" height="18" viewBox="0 0 16 18" fill="none" xmlns="http://www.w3.org/2000/svg">
<path fill-rule="evenodd" clip-rule="evenodd" d="M16 2C16 0.89543 15.1046 0 14 0H2C0.89543 0 0 0.89543 0 2V16C0 17.1046 0.89543 18 2 18H14C15.1046 18 16 17.1046 16 16V2ZM2.5 1.5H13.5L13.6166 1.50673C14.114 1.56449 14.5 1.98716 14.5 2.5V15.5L14.4933 15.6166C14.4355 16.114 14.0128 16.5 13.5 16.5H2.5L2.38338 16.4933C1.88604 16.4355 1.5 16.0128 1.5 15.5V2.5L1.50673 2.38338C1.56449 1.88604 1.98716 1.5 2.5 1.5ZM8.75521 4.75714C8.75521 4.34293 8.41942 4.00714 8.00521 4.00714C7.59099 4.00714 7.25521 4.34293 7.25521 4.75714L7.25444 8.43357L6.76777 7.94732C6.47488 7.65442 6 7.65442 5.70711 7.94732C5.41422 8.24021 5.41422 8.71508 5.70711 9.00798L7.38942 10.6933C7.52493 10.8877 7.75021 11.015 8.00521 11.015C8.26797 11.015 8.49918 10.8799 8.63312 10.6753L10.2981 9.00798C10.591 8.71508 10.591 8.24021 10.2981 7.94732C10.0052 7.65442 9.53033 7.65442 9.23744 7.94732L8.75444 8.42857L8.75521 4.75714ZM11.2521 12H4.75396C4.33925 12 4.00306 12.3358 4.00306 12.75C4.00306 13.1642 4.33925 13.5 4.75396 13.5H11.2521C11.6669 13.5 12.0031 13.1642 12.0031 12.75C12.0031 12.3358 11.6669 12 11.2521 12Z" fill="#828D9E"/>
</svg>
