<svg width="14" height="19" viewBox="0 0 14 19" fill="none" xmlns="http://www.w3.org/2000/svg">
<path fill-rule="evenodd" clip-rule="evenodd" d="M8.25 0C8.66421 0 9 0.335786 9 0.75C9 1.16421 8.66421 1.5 8.25 1.5H2.5C1.98716 1.5 1.56449 1.88604 1.50673 2.38338L1.5 2.5V16.5C1.5 17.0128 1.88604 17.4355 2.38338 17.4933L2.5 17.5H11.5C12.0128 17.5 12.4355 17.114 12.4933 16.6166L12.5 16.5V12.75C12.5 12.3358 12.8358 12 13.25 12C13.6642 12 14 12.3358 14 12.75V17C14 18.1046 13.1046 19 12 19H2C0.89543 19 0 18.1046 0 17V2C0 0.89543 0.89543 0 2 0H8.25ZM11.3733 7.47473L6.01574 12.8273C5.92199 12.9209 5.79488 12.9735 5.66235 12.9735H4.50684C4.23069 12.9735 4.00684 12.7497 4.00684 12.4735V11.2618C4.00684 11.1288 4.05979 11.0013 4.15398 10.9075L9.51635 5.56636L11.3733 7.47473ZM13.465 3.32568L13.6593 3.52522C14.1171 3.99572 14.1119 4.74676 13.6476 5.21088L12.628 6.23012L10.7706 4.32133L11.7678 3.32498C12.2366 2.85651 12.9965 2.85682 13.465 3.32568Z" fill="#828D9E"/>
</svg>
