<svg width="48" height="48" viewBox="0 0 48 48" fill="none" xmlns="http://www.w3.org/2000/svg">
<g clip-path="url(#clip0_169_2050)">
<rect width="48" height="48" rx="24" fill="#FF3E1D"/>
<g filter="url(#filter0_d_169_2050)">
<path fill-rule="evenodd" clip-rule="evenodd" d="M17.8494 16.8219L21.7405 16.1841C23.238 15.9386 24.762 15.9386 26.2595 16.1841L30.1506 16.8219C30.6392 16.9019 31 17.3537 31 17.8851V26.0749C31 26.3889 30.8726 26.6872 30.6509 26.8916L25.9524 31.2232C24.8289 32.2589 23.1711 32.2589 22.0476 31.2232L17.3491 26.8916C17.2456 26.7961 17.1626 26.68 17.1035 26.5515C17.0361 26.4049 17 26.2421 17 26.0749V17.8851C17 17.3537 17.3608 16.9019 17.8494 16.8219ZM19 18.66V25.6933L23.4032 29.7527C23.7609 30.0824 24.2391 30.0824 24.5968 29.7527L29 25.6933V18.66L25.9359 18.1578C24.6527 17.9474 23.3473 17.9474 22.0639 18.1578L19 18.66ZM25 23.7324C25.5979 23.3866 26 22.7402 26 22C26 20.8954 25.1045 20 24 20C22.8955 20 22 20.8954 22 22C22 22.7402 22.4021 23.3866 23 23.7324V26C23 26.5523 23.4478 27 24 27C24.5522 27 25 26.5523 25 26V23.7324Z" fill="white"/>
</g>
</g>
<defs>
<filter id="filter0_d_169_2050" x="12" y="16" width="24" height="24" filterUnits="userSpaceOnUse" color-interpolation-filters="sRGB">
<feFlood flood-opacity="0" result="BackgroundImageFix"/>
<feColorMatrix in="SourceAlpha" type="matrix" values="0 0 0 0 0 0 0 0 0 0 0 0 0 0 0 0 0 0 127 0" result="hardAlpha"/>
<feOffset dy="4"/>
<feGaussianBlur stdDeviation="2"/>
<feComposite in2="hardAlpha" operator="out"/>
<feColorMatrix type="matrix" values="0 0 0 0 0 0 0 0 0 0 0 0 0 0 0 0 0 0 0.25 0"/>
<feBlend mode="normal" in2="BackgroundImageFix" result="effect1_dropShadow_169_2050"/>
<feBlend mode="normal" in="SourceGraphic" in2="effect1_dropShadow_169_2050" result="shape"/>
</filter>
<clipPath id="clip0_169_2050">
<rect width="48" height="48" fill="white"/>
</clipPath>
</defs>
</svg>
