<svg width="22" height="22" viewBox="0 0 22 22" fill="none" xmlns="http://www.w3.org/2000/svg">
<path fill-rule="evenodd" clip-rule="evenodd" d="M11 16C12.1046 16 13 16.8954 13 18C13 19.1046 12.1046 20 11 20C9.89543 20 9 19.1046 9 18C9 16.8954 9.89543 16 11 16ZM11 9C12.1046 9 13 9.89543 13 11C13 12.1046 12.1046 13 11 13C9.89543 13 9 12.1046 9 11C9 9.89543 9.89543 9 11 9ZM11 2C12.1046 2 13 2.89543 13 4C13 5.10457 12.1046 6 11 6C9.89543 6 9 5.10457 9 4C9 2.89543 9.89543 2 11 2Z" fill="#828D9E"/>
</svg>
