<svg width="389" height="265" viewBox="0 0 389 265" fill="none" xmlns="http://www.w3.org/2000/svg">
<g clip-path="url(#clip0_9_3644)">
<path fill-rule="evenodd" clip-rule="evenodd" d="M112.898 26.1193H112.882C109.465 26.1127 107.685 23.9555 105.963 21.8692C104.178 19.7057 102.491 17.6623 98.9199 17.6623C96.6355 17.6623 95.5237 19.3399 94.2362 21.2827C92.7339 23.5498 91.0311 26.1193 87.1738 26.1193C79.3735 26.1193 77.7969 17.0177 77.7819 16.9258C77.7067 16.4643 78.0197 16.0298 78.481 15.9544C78.9421 15.8792 79.3771 16.1916 79.4531 16.6519C79.5058 16.9693 80.8184 24.4269 87.1738 24.4269C90.1215 24.4269 91.4343 22.4456 92.8244 20.348C94.1844 18.2962 95.7259 15.9699 98.9199 15.9699C103.29 15.9699 105.404 18.5319 107.27 20.7927C108.877 22.7401 110.265 24.4218 112.885 24.4269H112.898C115.306 24.4269 117.182 23.1685 118.476 20.6865C119.5 18.7219 119.761 16.7056 119.763 16.6855C119.821 16.222 120.243 15.8923 120.707 15.9501C121.171 16.0074 121.501 16.4288 121.444 16.8922C121.053 20.0855 118.764 26.1193 112.898 26.1193Z" fill="#FFD772"/>
<path fill-rule="evenodd" clip-rule="evenodd" d="M213.981 256.206C213.5 256.206 213.082 255.847 213.022 255.356C213.019 255.334 212.711 252.952 211.501 250.629C209.97 247.69 207.747 246.199 204.894 246.199H204.878C201.773 246.205 200.132 248.194 198.231 250.498C196.035 253.159 193.546 256.175 188.406 256.175C184.655 256.175 182.842 253.439 181.242 251.024C179.598 248.543 178.045 246.199 174.551 246.199C171.428 246.199 168.954 247.706 167.196 250.678C165.824 252.997 165.418 255.372 165.414 255.396C165.326 255.922 164.828 256.278 164.302 256.192C163.775 256.106 163.418 255.61 163.504 255.083C163.522 254.974 163.959 252.373 165.498 249.747C167.599 246.161 170.73 244.265 174.551 244.265C179.084 244.265 181.088 247.289 182.856 249.956C184.379 252.255 185.695 254.241 188.406 254.241C192.633 254.241 194.627 251.825 196.738 249.267C198.764 246.812 200.86 244.273 204.874 244.265H204.893C211.791 244.265 214.483 251.364 214.943 255.122C215.008 255.652 214.631 256.134 214.1 256.199C214.06 256.204 214.021 256.206 213.981 256.206Z" fill="#EB7D7D"/>
<path fill-rule="evenodd" clip-rule="evenodd" d="M5.22208 110.154C3.94212 110.154 2.90068 111.194 2.90068 112.473C2.90068 113.753 3.94212 114.793 5.22208 114.793C6.50205 114.793 7.54325 113.753 7.54325 112.473C7.54325 111.194 6.50205 110.154 5.22208 110.154ZM5.22208 116.486C3.00833 116.486 1.20728 114.686 1.20728 112.473C1.20728 110.261 3.00833 108.461 5.22208 108.461C7.4356 108.461 9.23665 110.261 9.23665 112.473C9.23665 114.686 7.4356 116.486 5.22208 116.486Z" fill="#FFD772"/>
<path fill-rule="evenodd" clip-rule="evenodd" d="M14.8999 97.1953C12.3496 97.1953 10.2745 99.2689 10.2745 101.818C10.2745 104.367 12.3496 106.44 14.8999 106.44C17.4501 106.44 19.5253 104.367 19.5253 101.818C19.5253 99.2689 17.4501 97.1953 14.8999 97.1953ZM14.8999 108.133C11.4158 108.133 8.58105 105.3 8.58105 101.818C8.58105 98.3357 11.4158 95.5029 14.8999 95.5029C18.3839 95.5029 21.2187 98.3357 21.2187 101.818C21.2187 105.3 18.3839 108.133 14.8999 108.133Z" fill="#696CFF"/>
<path fill-rule="evenodd" clip-rule="evenodd" d="M47.1824 23.8898C47.1824 25.6383 45.7641 27.056 44.0145 27.056C42.2648 27.056 40.8464 25.6383 40.8464 23.8898C40.8464 22.1416 42.2648 20.7239 44.0145 20.7239C45.7641 20.7239 47.1824 22.1416 47.1824 23.8898Z" fill="#EB7D7D"/>
<path fill-rule="evenodd" clip-rule="evenodd" d="M62.9217 8.16006C62.9217 11.1802 60.4719 13.6286 57.4496 13.6286C54.4277 13.6286 51.9778 11.1802 51.9778 8.16006C51.9778 5.13966 54.4277 2.69128 57.4496 2.69128C60.4719 2.69128 62.9217 5.13966 62.9217 8.16006Z" fill="#FFD772"/>
<path fill-rule="evenodd" clip-rule="evenodd" d="M354.793 44.5756H354.778C351.361 44.569 349.58 42.412 347.859 40.3255C346.074 38.162 344.387 36.1183 340.816 36.1183C338.531 36.1183 337.419 37.7962 336.131 39.739C334.629 42.0061 332.926 44.5756 329.069 44.5756C321.269 44.5756 319.692 35.474 319.678 35.3821C319.602 34.9208 319.915 34.4859 320.377 34.4107C320.839 34.3345 321.273 34.6479 321.348 35.1082C321.402 35.4259 322.714 42.8832 329.069 42.8832C332.017 42.8832 333.33 40.9019 334.72 38.8043C336.08 36.7522 337.622 34.4259 340.816 34.4259C345.185 34.4259 347.3 36.9882 349.165 39.2489C350.773 41.1964 352.16 42.8781 354.78 42.8832H354.794C357.202 42.8832 359.078 41.6248 360.372 39.1428C361.395 37.1782 361.656 35.1621 361.659 35.142C361.717 34.6788 362.136 34.3483 362.603 34.4066C363.066 34.4639 363.397 34.885 363.339 35.3485C362.949 38.5418 360.659 44.5756 354.793 44.5756Z" fill="#FFD772"/>
<path fill-rule="evenodd" clip-rule="evenodd" d="M289.078 42.346C289.078 44.0945 287.66 45.5122 285.91 45.5122C284.161 45.5122 282.742 44.0945 282.742 42.346C282.742 40.5975 284.161 39.1801 285.91 39.1801C287.66 39.1801 289.078 40.5975 289.078 42.346Z" fill="#EB7D7D"/>
<path fill-rule="evenodd" clip-rule="evenodd" d="M304.818 26.6162C304.818 29.6364 302.368 32.0848 299.346 32.0848C296.324 32.0848 293.874 29.6364 293.874 26.6162C293.874 23.5958 296.324 21.1475 299.346 21.1475C302.368 21.1475 304.818 23.5958 304.818 26.6162Z" fill="#696CFF"/>
<path fill-rule="evenodd" clip-rule="evenodd" d="M322.634 50.279C319.338 50.279 316.657 52.9585 316.657 56.2519C316.657 59.5455 319.338 62.2248 322.634 62.2248C325.929 62.2248 328.61 59.5455 328.61 56.2519C328.61 52.9585 325.929 50.279 322.634 50.279ZM322.634 63.9171C318.405 63.9171 314.964 60.4787 314.964 56.2519C314.964 52.0253 318.405 48.5867 322.634 48.5867C326.863 48.5867 330.303 52.0253 330.303 56.2519C330.303 60.4787 326.863 63.9171 322.634 63.9171Z" fill="#FFD772"/>
<g style="mix-blend-mode:multiply">
<path fill-rule="evenodd" clip-rule="evenodd" d="M323.03 222L61.8843 221.114C61.3438 221.112 60.5487 221.052 59.4988 220.932L55.2764 228.52L331.151 229.389L326.713 221.527L323.086 222H323.03Z" fill="#D0ABB1"/>
</g>
<path fill-rule="evenodd" clip-rule="evenodd" d="M56.5916 227.702L329.993 228.54L326.354 222.538C324.915 222.744 323.826 222.846 323.086 222.846H323.029L60.1479 221.838L56.5916 227.702ZM333.052 230.242L331.081 230.236L53.6033 229.389L59.2108 220.17C59.0652 220.229 59.9572 220.261 61.8867 220.268L323.086 221.154C324.055 221.154 325.467 220.959 327.322 220.57L333.052 230.242Z" fill="black"/>
<path fill-rule="evenodd" clip-rule="evenodd" d="M336.391 193.263L302.474 193.147L38.9451 192.243L71.088 157.571L297.104 155.531L297.733 156.135L336.391 193.263Z" fill="#FFD772"/>
<path fill-rule="evenodd" clip-rule="evenodd" d="M40.8778 191.403L302.477 192.301L334.28 192.41L296.766 156.38L71.461 158.414L40.8778 191.403ZM338.502 194.117L37.0125 193.082L70.7152 156.728L297.442 154.681L338.502 194.117Z" fill="black"/>
<path fill-rule="evenodd" clip-rule="evenodd" d="M65.8782 140.38V85.4301C65.8782 81.5739 69.0937 76.1112 81.6336 76.1112C92.7757 76.1112 172.201 76.3648 189.773 76.4214C191.679 76.4274 193.226 77.9617 193.25 79.8671L194.173 156.126L89.9936 163.838L65.8782 140.38Z" fill="#FFD772"/>
<g style="mix-blend-mode:multiply">
<path fill-rule="evenodd" clip-rule="evenodd" d="M193.456 145.069C193.456 145.069 193.369 145.565 193.209 146.394C192.846 148.309 193.928 152.267 193.062 155.756C192.991 156.044 191.104 156.072 191.03 156.357C190.955 156.648 190.877 156.938 190.802 157.223L186.298 157.556C186.275 157.286 186.254 157.005 186.234 156.713C186.215 156.442 186.198 156.161 186.182 155.872C186.012 153.026 185.917 149.293 185.917 144.489C185.917 108.483 181.012 84.1196 179.439 77.2341C179.367 76.915 179.301 76.6321 179.243 76.3879C179.153 76.0132 179.083 75.7303 179.035 75.5393C183.712 75.5562 187.432 75.5683 189.776 75.5758C191.017 75.5806 192.142 76.1147 192.928 76.9633L192.94 78.4719L193.456 145.069Z" fill="#D0ABB1"/>
</g>
<path fill-rule="evenodd" clip-rule="evenodd" d="M90.3106 162.967L66.7239 140.024V85.4301C66.7239 79.1828 74.4265 76.9562 81.6331 76.9562C91.2226 76.9562 152.199 77.1472 179.439 77.2342C183.924 77.2487 187.495 77.2608 189.769 77.268C191.203 77.2729 192.387 78.443 192.403 79.8767L193.209 146.394L193.318 155.342L191.247 155.494L186.181 155.871L90.3106 162.967ZM194.097 79.8574C194.082 78.7428 193.642 77.7274 192.928 76.9634C192.142 76.1148 191.017 75.5805 189.776 75.5757C187.432 75.5684 183.711 75.5563 179.035 75.5394C151.597 75.4524 91.1766 75.2638 81.6331 75.2638C75.8296 75.2638 71.4219 76.4074 68.5334 78.6582C65.4853 81.0299 65.0305 83.9191 65.0305 85.4301V140.737L89.6767 164.71L186.297 157.557L190.802 157.223L195.028 156.911L194.097 79.8574Z" fill="black"/>
<path fill-rule="evenodd" clip-rule="evenodd" d="M2.10068 156.968L24.6495 140.456C24.8796 140.287 25.1336 140.154 25.4031 140.061L65.2512 126.244C66.3076 125.878 67.4807 126.16 68.2546 126.966L104.57 164.804C105.905 166.195 105.509 168.48 103.785 169.342L62.9172 188.207C62.1823 188.574 61.6409 189.239 61.4304 190.034L56.2058 217.197C55.9685 218.094 55.3129 218.823 54.4425 219.144C51.7739 220.128 45.8163 221.708 41.1507 218.465C35.698 214.674 8.00339 171.265 1.37349 160.804C0.568154 159.533 0.886271 157.857 2.10068 156.968Z" fill="#FFD772"/>
<path fill-rule="evenodd" clip-rule="evenodd" d="M104.49 167.127C104.381 167.76 103.99 168.289 103.417 168.58L63.1913 187.148L26.7188 140.5L65.5289 127.044C65.7437 126.969 65.9658 126.933 66.1864 126.933C66.7271 126.933 67.2576 127.15 67.6435 127.552L103.959 165.389C104.407 165.857 104.6 166.49 104.49 167.127ZM60.612 189.817L60.6045 189.845L55.3804 217.006C55.2069 217.628 54.7485 218.129 54.1493 218.35C51.8542 219.196 46.0408 220.834 41.6343 217.771C37.4741 214.878 18.4785 186.213 2.08882 160.351C1.52443 159.46 1.74942 158.274 2.60095 157.651L25.0983 141.176L61.7192 188.015C61.189 188.492 60.7983 189.113 60.612 189.817ZM105.181 164.218L68.8656 126.381C67.866 125.339 66.3379 124.972 64.9737 125.445L25.1258 139.261C24.7763 139.382 24.4475 139.554 24.149 139.773L1.60015 156.285C0.0327913 157.433 -0.381124 159.617 0.65814 161.257C8.65438 173.874 35.1713 215.339 40.6674 219.16C42.668 220.551 45.0671 221.253 47.8084 221.253C48.0641 221.253 48.3235 221.247 48.585 221.235C51.0774 221.118 53.3052 220.465 54.7354 219.938C55.8598 219.524 56.7155 218.58 57.0244 217.414L57.0319 217.386L62.2561 190.224C62.3489 189.891 62.5258 189.592 62.7641 189.351L63.2571 189.981L64.5913 188.939L64.2622 188.518L104.14 170.11L104.163 170.099C105.228 169.566 105.956 168.588 106.159 167.415C106.362 166.242 106.005 165.077 105.181 164.218Z" fill="black"/>
<path fill-rule="evenodd" clip-rule="evenodd" d="M320.676 85.2945V138.948C320.676 139.777 320.34 140.572 319.744 141.15L297.554 162.737C296.923 163.352 296.056 163.666 295.178 163.601L220.352 158.062L195.265 156.205C193.645 156.084 192.396 154.726 192.415 153.101L193.308 79.3255C193.33 77.645 194.694 76.2938 196.376 76.2887C206.725 76.2548 241.58 76.1436 269.284 76.0638C286.315 76.0131 300.645 75.9768 304.92 75.9768C317.461 75.9768 320.676 81.4383 320.676 85.2945Z" fill="#FFD772"/>
<g style="mix-blend-mode:multiply">
<path fill-rule="evenodd" clip-rule="evenodd" d="M321.523 85.2945V137.258C321.235 137.48 320.954 137.691 320.676 137.884C320.388 138.089 320.105 138.276 319.829 138.447C315.816 140.954 313.687 140.076 313.435 132.855C312.506 106.142 308.118 88.5269 304.901 76.823C304.821 76.5329 304.744 76.25 304.666 75.9768C304.586 75.6843 304.506 75.4038 304.429 75.1306H304.92C310.724 75.1306 315.134 76.2718 318.022 78.5226C321.068 80.8943 321.523 83.7835 321.523 85.2945Z" fill="#D0ABB1"/>
</g>
<path fill-rule="evenodd" clip-rule="evenodd" d="M319.829 138.948C319.829 139.545 319.582 140.128 319.154 140.543L296.963 162.131C296.506 162.575 295.875 162.803 295.241 162.757L195.328 155.361C194.155 155.274 193.248 154.285 193.262 153.111L194.155 79.3374C194.169 78.1264 195.168 77.1375 196.378 77.1351C206.727 77.101 241.582 76.9898 269.286 76.9103C287.219 76.8571 300.858 76.823 304.901 76.823H304.92C312.127 76.823 319.829 79.0497 319.829 85.2948V138.948ZM318.022 78.5229C315.134 76.272 310.724 75.1306 304.92 75.1306H304.429C299.874 75.1333 286.573 75.1669 269.281 75.2179C241.577 75.2974 206.722 75.4086 196.373 75.4427C194.244 75.45 192.488 77.1856 192.462 79.3159L191.569 153.091C191.544 155.156 193.141 156.894 195.202 157.049L295.115 164.445C295.212 164.452 295.309 164.457 295.406 164.457C296.424 164.457 297.408 164.057 298.144 163.345L320.335 141.757C321.09 141.025 321.523 139.999 321.523 138.948V85.2948C321.523 83.7837 321.068 80.8946 318.022 78.5229Z" fill="black"/>
<path fill-rule="evenodd" clip-rule="evenodd" d="M387.077 161.067C380.448 171.528 352.754 214.937 347.301 218.729C347.11 218.862 346.914 218.987 346.718 219.103C342.148 221.843 336.568 220.351 334.008 219.408C333.137 219.086 332.481 218.356 332.244 217.459L325.224 190.954C325.013 190.161 324.472 189.497 323.739 189.129L284.667 169.604C282.943 168.743 282.545 166.459 283.881 165.066L320.197 127.229C320.971 126.422 322.144 126.141 323.199 126.506L341.529 132.862L363.047 140.323C363.319 140.418 363.572 140.551 363.802 140.718L386.351 157.23C387.566 158.12 387.882 159.795 387.077 161.067Z" fill="#FFD772"/>
<g style="mix-blend-mode:multiply">
<path fill-rule="evenodd" clip-rule="evenodd" d="M387.077 161.067C380.449 171.528 357.708 209.894 352.256 213.685C352.064 213.818 351.745 213.216 351.55 213.332C375.096 165.473 339.625 143.464 339.625 143.464L341.529 132.862L363.047 140.323C363.319 140.418 363.572 140.551 363.802 140.718L386.351 157.23C387.566 158.12 387.882 159.795 387.077 161.067Z" fill="#D0ABB1"/>
</g>
<path fill-rule="evenodd" clip-rule="evenodd" d="M386.361 160.615C361.373 200.053 349.55 216.135 346.817 218.034C346.647 218.153 346.469 218.268 346.282 218.378C344.488 219.454 340.546 220.914 334.302 218.614C333.693 218.39 333.23 217.877 333.063 217.243L326.042 190.737C325.77 189.711 325.069 188.849 324.117 188.372L323.679 188.153L361.125 140.552L362.769 141.122C362.96 141.189 363.141 141.283 363.302 141.4L385.85 157.913C386.701 158.536 386.926 159.723 386.361 160.615ZM283.961 167.39C283.85 166.753 284.044 166.119 284.491 165.652L320.808 127.814C321.194 127.413 321.724 127.196 322.265 127.196C322.485 127.196 322.707 127.232 322.922 127.306L359.432 139.965L322.133 187.38L285.045 168.847C284.467 168.558 284.071 168.027 283.961 167.39ZM386.851 156.548L364.3 140.033C364.001 139.817 363.674 139.646 363.325 139.524L323.476 125.707C322.111 125.235 320.584 125.602 319.586 126.644L283.269 164.48C282.444 165.341 282.089 166.507 282.292 167.68C282.496 168.852 283.223 169.829 284.288 170.361L323.359 189.885C323.876 190.145 324.257 190.613 324.406 191.171L331.425 217.676C331.734 218.842 332.59 219.786 333.715 220.202C336.349 221.172 338.629 221.527 340.556 221.527C343.683 221.527 345.881 220.592 347.15 219.831C347.368 219.702 347.581 219.565 347.784 219.423C353.289 215.596 379.798 174.136 387.792 161.52C388.831 159.879 388.418 157.695 386.851 156.548Z" fill="black"/>
<path fill-rule="evenodd" clip-rule="evenodd" d="M323.086 222H323.029L61.8842 221.114C52.8715 221.084 45.5898 213.757 45.6205 204.749C45.6508 195.762 52.9523 188.496 61.9384 188.496H61.995L323.141 189.382C332.153 189.413 339.434 196.739 339.404 205.747C339.373 214.734 332.072 222 323.086 222Z" fill="#696CFF"/>
<path fill-rule="evenodd" clip-rule="evenodd" d="M323.086 222H323.029L61.8842 221.114C52.8715 221.084 45.5898 213.757 45.6205 204.749C45.6508 195.762 52.9523 188.496 61.9384 188.496H61.995L323.141 189.382C332.153 189.413 339.434 196.739 339.404 205.747C339.373 214.734 332.072 222 323.086 222Z" fill="black"/>
<path fill-rule="evenodd" clip-rule="evenodd" d="M323.086 222H323.029L61.8842 221.114C52.8715 221.084 45.5898 213.757 45.6205 204.749C45.6508 195.762 52.9523 188.496 61.9384 188.496H61.995L323.141 189.382C332.153 189.413 339.434 196.739 339.404 205.747C339.373 214.734 332.072 222 323.086 222Z" fill="black"/>
<path fill-rule="evenodd" clip-rule="evenodd" d="M323.086 222H323.029L61.8842 221.114C52.8715 221.084 45.5898 213.757 45.6205 204.749C45.6508 195.762 52.9523 188.496 61.9384 188.496H61.995L323.141 189.382C332.153 189.413 339.434 196.739 339.404 205.747C339.373 214.734 332.072 222 323.086 222Z" fill="black"/>
<g style="mix-blend-mode:multiply">
<path fill-rule="evenodd" clip-rule="evenodd" d="M44.2237 219.847C38.8169 230.906 25.657 258.43 26.8698 261.893C27.4922 263.671 29.6636 264.114 31.05 262.871C37.7303 256.884 53.1063 231.896 59.6866 220.955C57.7937 220.694 56.0074 220.105 54.3807 219.253C52.1486 220.038 48.0675 221.059 44.2237 219.847Z" fill="#D0ABB1"/>
</g>
<path fill-rule="evenodd" clip-rule="evenodd" d="M44.6745 220.853C31.2395 248.382 27.1105 260.02 27.6689 261.614C27.86 262.16 28.2642 262.537 28.8063 262.676C29.3862 262.825 30.014 262.663 30.4845 262.241C36.894 256.497 51.6244 232.677 58.3255 221.574C56.9393 221.277 55.5959 220.806 54.3152 220.17C52.1443 220.893 48.3716 221.775 44.6745 220.853ZM29.2377 264.423C28.9527 264.423 28.6665 264.388 28.3849 264.315C27.2927 264.035 26.4491 263.254 26.0705 262.173C25.652 260.978 25.9808 257.762 32.2889 243.379C36.1755 234.518 40.9579 224.599 43.463 219.475L43.7828 218.821L44.4783 219.04C48.1288 220.191 52.0734 219.167 54.0995 218.455L54.4471 218.333L54.7734 218.504C56.3555 219.332 58.0475 219.875 59.8026 220.117L61.0731 220.293L60.4122 221.391C54.0165 232.025 38.407 257.414 31.6152 263.501C30.9449 264.102 30.0967 264.423 29.2377 264.423Z" fill="black"/>
<path fill-rule="evenodd" clip-rule="evenodd" d="M339.405 205.746C339.374 214.735 332.072 221.999 323.086 221.999H323.03L279.531 221.852L61.8835 221.115C52.8722 221.083 45.5903 213.758 45.6195 204.75C45.6508 195.761 52.952 188.495 61.9391 188.495H61.9947L270.252 189.204L323.141 189.383C332.153 189.411 339.434 196.74 339.405 205.746Z" fill="#FFD772"/>
<path fill-rule="evenodd" clip-rule="evenodd" d="M61.9389 189.342C53.4368 189.342 46.4958 196.255 46.466 204.753C46.4385 213.278 53.356 220.239 61.8861 220.269L323.085 221.153C331.587 221.153 338.528 214.24 338.558 205.743C338.572 201.613 336.975 197.725 334.062 194.794C331.15 191.864 327.27 190.242 323.138 190.229L270.248 190.05L61.9389 189.342ZM323.085 222.846H323.03L61.8803 221.961C52.4167 221.928 44.7422 214.206 44.7726 204.747C44.8055 195.319 52.5064 187.649 61.9389 187.649H61.9945L270.254 188.358L323.144 188.537C332.608 188.567 340.282 196.288 340.252 205.748C340.218 215.175 332.518 222.846 323.085 222.846Z" fill="black"/>
<g style="mix-blend-mode:multiply">
<path fill-rule="evenodd" clip-rule="evenodd" d="M333.073 218.881C330.932 221.032 329.777 220.895 326.713 221.591C333.835 233.352 347.786 255.749 354.063 261.373C355.449 262.616 357.62 262.173 358.243 260.395C359.474 256.881 346.862 231.46 341.614 220.742C337.667 220.816 334.441 219.921 333.073 218.881Z" fill="#D0ABB1"/>
</g>
<path fill-rule="evenodd" clip-rule="evenodd" d="M328.055 222.17C345.784 251.367 352.536 258.869 354.628 260.743C355.098 261.165 355.725 261.328 356.306 261.179C356.848 261.039 357.252 260.662 357.443 260.116C357.639 259.557 357.51 256.942 352.097 244.761C348.7 237.117 344.455 228.459 341.645 222.729L341.088 221.592C337.906 221.583 334.944 220.965 333.173 219.956C331.498 221.477 330.268 221.725 328.342 222.112C328.249 222.131 328.153 222.15 328.055 222.17ZM355.875 262.926C355.015 262.926 354.167 262.604 353.497 262.003C347.213 256.372 333.565 234.541 325.989 222.029L325.381 221.026L326.526 220.765C327.078 220.64 327.572 220.541 328.009 220.453C329.988 220.055 330.892 219.873 332.473 218.285L332.995 217.759L333.585 218.207C334.722 219.072 337.718 219.966 341.598 219.896L342.138 219.886L343.166 221.984C357.412 251.04 359.816 258.465 359.042 260.675C358.663 261.756 357.82 262.537 356.727 262.818C356.446 262.89 356.16 262.926 355.875 262.926Z" fill="black"/>
<path fill-rule="evenodd" clip-rule="evenodd" d="M83.9315 168.591C94.0094 147.3 122.135 146.889 123.077 146.469C123.077 146.469 132.247 142.116 134.051 144.193C136.777 147.333 129.769 161.269 129.769 161.269L129.788 161.26C129.657 161.32 109.33 159.377 100.385 167.748C97.0563 170.863 98.0871 179.152 100.068 184.718C100.462 185.824 105.59 193.035 105.59 193.035C106.416 194.453 105.937 196.272 104.518 197.097C104.047 197.371 103.533 197.501 103.025 197.501C102.001 197.501 101.005 196.973 100.453 196.026L96.7472 191.801C96.7334 191.92 95.7742 196.07 98.9503 201.075C99.7278 202.301 99.3642 203.925 98.1377 204.702C97.7008 204.979 97.2136 205.111 96.7319 205.111C95.8613 205.111 95.0095 204.679 94.509 203.89L93.4412 201.685C94.2189 202.911 93.8551 204.535 92.6288 205.312C92.1919 205.589 91.7047 205.721 91.2231 205.721C90.3524 205.721 89.5006 205.289 88.9999 204.5L88.0685 201.498C88.0685 201.498 88.6646 204.3 87.3848 204.987C86.9293 205.231 86.4336 205.328 85.9532 205.293C85.085 205.23 84.2668 204.738 83.8246 203.915C80.0638 196.912 83.4704 189.144 83.5537 188.871C84.4308 185.986 82.6416 171.317 83.9315 168.591Z" fill="white"/>
<g style="mix-blend-mode:multiply">
<path fill-rule="evenodd" clip-rule="evenodd" d="M90.9821 176.638C90.9821 176.638 88.3058 190.525 89.6583 196.171C91.0109 201.817 92.0453 205.952 92.0453 205.952C92.0453 205.952 88.6089 205.38 88.2189 204.124C87.829 202.869 87.3957 206.159 85.4892 205.293C83.5829 204.427 81.2431 198.885 82.2829 193.385C83.3228 187.885 83.9293 185.591 83.9293 185.591L83.5829 176.844L86.4641 175.517L90.9821 176.638Z" fill="#D0ABB1"/>
</g>
<g style="mix-blend-mode:multiply">
<path fill-rule="evenodd" clip-rule="evenodd" d="M102.077 152.185L107.479 149.999L109.249 156.051L102.779 154.174L102.077 152.185Z" fill="#D0ABB1"/>
</g>
<path fill-rule="evenodd" clip-rule="evenodd" d="M129.261 160.388C122.801 160.032 107.404 160.019 99.8062 167.131C95.7139 170.96 97.6664 180.496 99.2708 185.002C99.6794 186.15 103.955 192.196 104.876 193.492C105.148 193.975 105.219 194.535 105.077 195.073C104.932 195.621 104.582 196.081 104.092 196.366C103.767 196.555 103.398 196.655 103.025 196.655C102.269 196.655 101.564 196.251 101.185 195.6L101.144 195.529L97.6265 191.52L97.8868 189.048C97.9357 188.584 97.5985 188.167 97.1333 188.118C96.6688 188.069 96.2517 188.407 96.2026 188.871L95.9038 191.708C95.6934 192.859 95.2695 196.855 98.2352 201.528C98.7616 202.358 98.5143 203.461 97.6843 203.987C97.3981 204.169 97.0687 204.264 96.7319 204.264C96.1312 204.264 95.5797 203.97 95.2478 203.473L94.486 201.901C94.4047 201.678 94.298 201.461 94.1676 201.252C93.587 199.883 93.3529 198.683 93.1443 197.608C93.1049 197.406 93.0664 197.208 93.027 197.014C92.3929 193.908 92.8078 192.258 92.8192 192.215C92.9438 191.767 92.6835 191.302 92.2355 191.174C91.7855 191.047 91.3174 191.306 91.1892 191.756C91.1662 191.836 90.6357 193.767 91.3677 197.353C91.4062 197.541 91.4434 197.734 91.4819 197.93C91.7296 199.207 92.0383 200.797 92.9394 202.641C93.131 203.37 92.8463 204.172 92.1755 204.597C91.889 204.779 91.5595 204.875 91.223 204.875C90.6417 204.875 90.1066 204.599 89.772 204.132L89.034 201.754C88.6147 200.192 88.2835 198.957 88.1236 197.956C87.6338 194.893 88.1957 192.549 88.202 192.523C88.3145 192.07 88.039 191.611 87.5856 191.498C87.1308 191.384 86.6722 191.66 86.5589 192.114C86.5318 192.222 85.9036 194.798 86.4515 198.223C86.6059 199.189 86.893 200.303 87.2581 201.668L87.2399 201.673C87.4313 202.586 87.4264 204.004 86.9845 204.241C86.6857 204.402 86.3506 204.473 86.0146 204.449C85.4009 204.404 84.8609 204.055 84.5706 203.514C81.4485 197.701 83.5735 191.159 84.299 189.293C84.3353 189.2 84.3565 189.14 84.3636 189.117C84.8067 187.66 84.6551 183.995 84.4797 179.752C84.3043 175.515 84.0863 170.244 84.6969 168.953C91.9263 153.68 108.914 148.846 121.892 147.48C122.945 147.37 123.202 147.34 123.44 147.234C127.503 145.306 132.598 143.811 133.411 144.748C134.986 146.561 132.002 154.805 129.261 160.388ZM134.69 143.639C132.64 141.278 125.11 144.571 122.781 145.673C122.619 145.702 122.16 145.751 121.714 145.797C118.921 146.091 111.499 146.872 103.758 149.965C93.9823 153.87 87.0541 160.016 83.1661 168.23C82.4319 169.781 82.5395 173.827 82.7877 179.822C82.9418 183.55 83.1015 187.406 82.7485 188.607L82.7205 188.68C81.7056 191.291 79.7086 198.04 83.0785 204.314C83.6448 205.369 84.6967 206.05 85.8922 206.137C86.5483 206.183 87.2034 206.045 87.7854 205.733C87.8967 205.673 88.164 205.505 88.4272 205.16C89.0814 206.046 90.1088 206.567 91.223 206.567C91.881 206.567 92.5241 206.38 93.0822 206.026C93.558 205.725 93.9356 205.326 94.2054 204.873C94.8551 205.561 95.7609 205.957 96.7324 205.957C97.3906 205.956 98.0334 205.77 98.5913 205.417C100.21 204.391 100.692 202.239 99.6651 200.622C99.264 199.99 97.5467 197.103 97.4381 193.872L99.7662 196.526C100.457 197.652 101.698 198.348 103.025 198.348C103.696 198.348 104.36 198.168 104.944 197.829C105.826 197.315 106.454 196.49 106.715 195.504C106.975 194.518 106.835 193.49 106.322 192.609L106.28 192.545C103.793 189.048 101.088 185.058 100.866 184.435C98.7981 178.625 98.1295 171.019 100.964 168.366C103.319 166.161 110.67 161.19 128.442 162.04L127.967 162.998L130.119 162.039C130.126 162.036 130.132 162.034 130.138 162.031L129.799 161.284L130.525 161.649C130.598 161.505 132.316 158.076 133.728 154.197C135.742 148.666 136.056 145.212 134.69 143.639Z" fill="black"/>
<path fill-rule="evenodd" clip-rule="evenodd" d="M126.897 145.532C126.897 145.532 122.498 145.219 108.925 149.109C103.808 150.576 114.341 162.319 114.341 162.319L126.897 145.532Z" fill="#EB7D7D"/>
<g style="mix-blend-mode:multiply">
<path fill-rule="evenodd" clip-rule="evenodd" d="M126.897 145.532C126.897 145.532 122.498 145.219 108.925 149.109C103.808 150.576 114.341 162.319 114.341 162.319L126.897 145.532Z" fill="#D0ABB1"/>
</g>
<path fill-rule="evenodd" clip-rule="evenodd" d="M125.148 146.457C122.828 146.672 117.915 147.413 109.159 149.923C108.627 150.075 108.488 150.328 108.423 150.554C108.273 151.076 108.251 152.757 111.293 157.097C112.406 158.686 113.579 160.124 114.294 160.969L125.148 146.457ZM114.401 163.653L113.711 162.884C113.63 162.795 111.728 160.667 109.914 158.08C107.328 154.392 106.308 151.778 106.795 150.086C106.974 149.466 107.448 148.652 108.692 148.296C122.253 144.41 126.771 144.674 126.957 144.688L128.504 144.797L114.401 163.653Z" fill="black"/>
<path fill-rule="evenodd" clip-rule="evenodd" d="M110.162 235.522L103.577 244.213C103.038 244.925 103.201 245.943 103.935 246.451L115.473 254.434C116.124 254.884 117.008 254.78 117.536 254.191L124.839 246.039C125.469 245.337 125.341 244.243 124.566 243.704L112.311 235.182C111.619 234.701 110.671 234.851 110.162 235.522Z" fill="#696CFF"/>
<path fill-rule="evenodd" clip-rule="evenodd" d="M111.414 235.746C111.195 235.746 110.98 235.845 110.837 236.033L104.252 244.725C104.132 244.883 104.083 245.079 104.115 245.275C104.146 245.471 104.254 245.642 104.417 245.755L115.955 253.738C116.254 253.945 116.663 253.897 116.906 253.626L124.209 245.475C124.349 245.318 124.413 245.117 124.388 244.908C124.364 244.7 124.255 244.519 124.083 244.399L111.827 235.876C111.701 235.788 111.557 235.746 111.414 235.746ZM116.364 255.558C115.888 255.558 115.408 255.418 114.991 255.13L103.453 247.147C102.907 246.769 102.548 246.198 102.443 245.542C102.337 244.886 102.501 244.233 102.902 243.703L109.487 235.012C110.273 233.975 111.726 233.744 112.795 234.487L125.05 243.01C125.618 243.405 125.99 244.025 126.07 244.713C126.151 245.399 125.932 246.088 125.47 246.604L118.167 254.755C117.694 255.283 117.032 255.558 116.364 255.558Z" fill="black"/>
<path fill-rule="evenodd" clip-rule="evenodd" d="M180.097 176.82C177.03 179.877 172.869 181.852 168.205 182.091L138.227 183.636C129.59 184.079 122.055 178.426 119.798 170.45C119.432 169.164 119.205 167.815 119.132 166.422L118.842 160.77C118.324 150.746 126.037 142.204 136.066 141.687L166.042 140.144C176.072 139.627 184.621 147.335 185.136 157.358L185.429 163.008C185.705 168.371 183.627 173.31 180.097 176.82Z" fill="#EB7D7D"/>
<g style="mix-blend-mode:multiply">
<path fill-rule="evenodd" clip-rule="evenodd" d="M180.097 176.82C177.03 179.877 172.869 181.852 168.205 182.091L138.227 183.636C129.59 184.078 122.055 178.426 119.798 170.45L125.074 171.18C125.074 171.18 128.342 175.145 131.959 176.545C135.578 177.944 174.415 175.626 177.891 173.1C179.384 172.014 179.945 174.094 180.097 176.82Z" fill="#D0ABB1"/>
</g>
<path fill-rule="evenodd" clip-rule="evenodd" d="M167 140.966C166.696 140.966 166.391 140.973 166.086 140.989L136.11 142.532C131.485 142.771 127.229 144.794 124.127 148.23C121.026 151.667 119.449 156.104 119.688 160.726L119.978 166.379C120.046 167.684 120.259 168.976 120.612 170.219C121.663 173.932 123.973 177.234 127.117 179.515C130.307 181.829 134.239 182.991 138.183 182.791L168.161 181.246C172.441 181.026 176.467 179.242 179.499 176.221L179.5 176.221C182.983 172.757 184.836 167.957 184.583 163.052L184.291 157.401C184.053 152.779 182.028 148.526 178.59 145.426C175.378 142.532 171.293 140.966 167 140.966ZM137.304 184.506C133.301 184.506 129.364 183.237 126.122 180.885C122.672 178.381 120.137 174.757 118.983 170.68C118.596 169.317 118.361 167.898 118.287 166.466L117.996 160.813C117.734 155.739 119.465 150.868 122.87 147.096C126.275 143.325 130.946 141.104 136.023 140.842L165.998 139.299C171.075 139.037 175.95 140.767 179.724 144.17C183.499 147.573 185.721 152.241 185.982 157.315L186.274 162.965C186.551 168.349 184.517 173.618 180.694 177.42C177.366 180.736 172.946 182.695 168.248 182.936L138.27 184.481C137.948 184.498 137.625 184.506 137.304 184.506Z" fill="black"/>
<path fill-rule="evenodd" clip-rule="evenodd" d="M343.968 144.919C330.587 150.881 284.914 172.957 265.495 174.729C262.512 175.003 258.76 175.118 254.539 175.118C244.543 175.118 235.807 174.541 225.961 174.405C224.38 174.384 221.457 173.798 222.464 175.017C224.672 177.693 227.902 181.573 230.427 184.849C231.644 186.431 232.776 187.918 233.826 189.318C244.957 204.145 247.11 209.184 249.163 211.514C249.735 212.16 250.671 212.324 251.43 211.923C254.481 210.308 260.129 206.536 270.854 195.262C278.399 187.333 287.669 178.564 291.073 175.357C291.816 174.662 292.979 174.691 293.683 175.426L313.339 195.906C314.055 196.655 314.021 197.844 313.259 198.548C310.037 201.529 301.598 209.251 292.631 218.525C285.785 225.604 279.41 231.327 273.682 235.531C264.559 242.225 256.484 245.48 248.999 245.48C240.222 245.48 231.453 240.55 221.399 229.966C215.446 223.697 210.443 217.536 201.932 207.537C189.471 192.895 180.146 179.956 178.45 177.456C178.278 177.2 178.171 176.908 178.143 176.601L178.157 145.304C178.055 144.29 178.791 143.389 179.804 143.278C219.993 138.834 249.079 145.152 262.679 143.911C275.303 142.758 312.579 128.624 335.242 120.443C337.138 119.759 339.228 120.757 339.887 122.662L342.981 131.617L345.978 140.284C346.612 142.117 345.741 144.128 343.968 144.919Z" fill="#696CFF"/>
<g style="mix-blend-mode:multiply">
<path fill-rule="evenodd" clip-rule="evenodd" d="M343.968 144.919C330.587 150.881 284.914 172.957 265.495 174.729C262.512 175.003 258.76 175.118 254.539 175.118C244.543 175.118 233.314 174.643 223.47 174.413C221.975 174.378 207.992 158.591 207.992 158.591C207.992 158.591 258.624 163.963 279.687 157.774C297.444 152.554 332.172 135.682 342.981 131.617L345.978 140.285C346.612 142.117 345.741 144.128 343.968 144.919Z" fill="#D0ABB1"/>
</g>
<g style="mix-blend-mode:multiply">
<path fill-rule="evenodd" clip-rule="evenodd" d="M314.698 197.274C314.676 198.002 314.369 198.676 313.832 199.17L313.119 199.832C309.376 203.287 301.589 210.476 293.241 219.113C286.356 226.233 279.945 231.984 274.183 236.213C264.91 243.019 256.673 246.326 248.999 246.326C239.976 246.326 231.011 241.311 220.785 230.548C216.215 225.737 212.253 221.045 206.768 214.553C205.096 212.576 203.29 210.435 201.286 208.086C188.797 193.408 179.405 180.372 177.748 177.93C177.497 177.553 177.342 177.122 177.301 176.68L177.296 176.601L177.326 173.137C177.326 173.137 178.584 172.04 179.019 172.359C192.67 182.371 226.613 233.723 247.673 233.539C267.051 233.367 297.014 197.782 304.751 188.181C304.942 187.941 305.121 187.719 305.285 187.514C305.484 187.267 305.66 187.042 305.817 186.847L313.951 195.321C314.456 195.85 314.723 196.544 314.698 197.274Z" fill="#D0ABB1"/>
</g>
<path fill-rule="evenodd" clip-rule="evenodd" d="M343.624 144.146C341.8 144.958 339.352 146.082 336.516 147.383C318.84 155.492 282.054 172.37 265.418 173.886C262.624 174.142 258.964 174.272 254.539 174.272C248.92 174.272 243.593 174.086 238.442 173.905C234.428 173.765 230.277 173.62 225.974 173.559C225.63 173.554 225.21 173.521 224.764 173.484C223.776 173.404 222.955 173.339 222.365 173.493C216.089 165.313 202.786 153.613 202.214 153.112C201.864 152.804 201.328 152.839 201.019 153.19C200.711 153.541 200.746 154.076 201.097 154.384C201.238 154.507 215.255 166.835 221.297 174.886C221.359 174.967 221.434 175.03 221.515 175.082C221.578 175.23 221.673 175.389 221.81 175.556L222.609 176.523C224.803 179.175 227.53 182.478 229.758 185.365C231.023 187.009 232.13 188.469 233.149 189.825C240.208 199.228 243.668 204.721 245.736 208.001C246.941 209.911 247.736 211.173 248.53 212.075C249.36 213.013 250.714 213.257 251.827 212.67C256.755 210.061 263.18 204.559 271.468 195.845C275.061 192.069 281.481 185.553 291.651 175.974C292.055 175.597 292.691 175.614 293.071 176.011L304.751 188.181L312.726 196.491C312.916 196.689 313.015 196.947 313.007 197.221C312.997 197.491 312.884 197.743 312.683 197.927L311.967 198.589C308.215 202.054 300.406 209.268 292.021 217.938C285.204 224.988 278.866 230.677 273.181 234.85C264.209 241.432 256.298 244.634 248.999 244.634C240.472 244.634 231.896 239.789 222.014 229.383C217.478 224.606 213.528 219.933 208.06 213.463C206.388 211.483 204.579 209.343 202.578 206.988C190.134 192.369 180.796 179.408 179.154 176.985C179.064 176.854 179.009 176.707 178.989 176.555L178.991 169.597L179.004 145.304L178.999 145.219C178.946 144.673 179.347 144.18 179.897 144.119C205.738 141.261 226.966 142.867 242.465 144.037C251.063 144.687 257.856 145.199 262.757 144.753C273.786 143.747 302.544 133.256 325.655 124.829C329.16 123.55 332.471 122.343 335.529 121.238C336.231 120.984 336.991 121.023 337.663 121.344C338.338 121.666 338.841 122.232 339.085 122.938L342.192 131.922L345.177 140.56C345.671 141.989 345.003 143.529 343.624 144.146ZM346.779 140.009L340.687 122.386C340.295 121.248 339.48 120.336 338.394 119.819C337.308 119.299 336.086 119.239 334.954 119.647C331.894 120.752 328.581 121.959 325.074 123.24C303.272 131.192 273.413 142.081 262.602 143.067C257.844 143.503 251.114 142.995 242.593 142.349C227.026 141.174 205.708 139.562 179.712 142.436C178.259 142.596 177.19 143.894 177.311 145.342L177.298 169.193L177.296 176.601L177.301 176.68C177.342 177.122 177.497 177.553 177.748 177.93C179.405 180.372 188.796 193.408 201.286 208.086C203.289 210.435 205.097 212.576 206.768 214.553C212.252 221.045 216.215 225.737 220.785 230.549C231.01 241.312 239.976 246.326 248.999 246.326C256.672 246.326 264.91 243.019 274.182 236.213C279.945 231.984 286.356 226.233 293.24 219.113C301.589 210.477 309.376 203.287 313.118 199.832L313.832 199.17C314.369 198.676 314.677 198.002 314.699 197.274C314.722 196.544 314.457 195.85 313.951 195.321L305.818 186.847L294.295 174.841C293.277 173.777 291.571 173.731 290.492 174.741C280.291 184.349 273.848 190.887 270.239 194.68C262.193 203.139 255.732 208.688 251.034 211.176C250.618 211.396 250.109 211.304 249.8 210.956C249.096 210.158 248.329 208.942 247.17 207.1C245.088 203.797 241.604 198.267 234.504 188.81C233.483 187.448 232.368 185.984 231.098 184.332C228.855 181.421 226.117 178.109 223.915 175.445L223.632 175.102C223.973 175.118 224.345 175.147 224.627 175.172C225.081 175.208 225.551 175.247 225.949 175.252C230.236 175.309 234.378 175.455 238.382 175.597C243.549 175.776 248.89 175.964 254.539 175.964C259.015 175.964 262.728 175.832 265.572 175.573C282.497 174.028 319.459 157.071 337.223 148.921C338.638 148.27 339.957 147.666 341.149 147.122C342.342 146.578 343.406 146.097 344.314 145.693C346.501 144.716 347.562 142.272 346.779 140.009Z" fill="black"/>
<path fill-rule="evenodd" clip-rule="evenodd" d="M126.72 236.269C119.872 235.167 116.76 238.869 116.76 238.869L122.155 241.937L126.72 236.269Z" fill="white"/>
<path fill-rule="evenodd" clip-rule="evenodd" d="M118.557 238.48L121.948 240.846L125.095 236.937C121.544 236.715 119.651 237.673 118.557 238.48ZM122.21 243.094L115.84 238.687L116.112 238.324C116.252 238.158 119.617 234.269 126.855 235.434L128.294 235.665L122.21 243.094Z" fill="black"/>
<path fill-rule="evenodd" clip-rule="evenodd" d="M160.816 213.603C159.82 220.249 155.649 228.24 148.063 238.036C142.895 244.711 135.171 252.047 135.171 252.047C134.598 252.549 133.836 253.272 133.141 253.998C132.445 254.725 131.813 255.455 131.501 255.978C130.413 257.793 128.712 261.282 128.695 261.318C128.129 262.479 126.965 263.156 125.753 263.156C125.274 263.156 124.788 263.049 124.326 262.825C122.708 262.036 122.03 260.088 122.817 258.465C122.727 258.589 121 260.917 119.014 259.981C117.035 259.053 117.071 257.172 117.86 255.55C117.86 255.55 115.864 256.821 114.41 256.217C114.2 256.13 114.004 256.016 113.827 255.886C112.656 255.013 112.216 253.26 112.901 251.853C112.976 251.698 114.667 248.024 115.98 246.012C119.113 241.22 124.926 237.528 124.926 237.528C131.695 230.532 142.153 217.244 143.099 210.949C143.224 210.105 143.59 205.165 138.343 190.788C135.343 182.572 132.07 175.592 132.038 175.522C130.449 172.147 131.155 168.281 133.521 165.682C134.288 164.839 135.234 164.127 136.332 163.61C140.808 161.507 146.144 163.427 148.251 167.899C148.397 168.209 151.854 175.57 155.127 184.516C159.924 197.631 161.787 207.148 160.816 213.603Z" fill="white"/>
<g style="mix-blend-mode:multiply">
<path fill-rule="evenodd" clip-rule="evenodd" d="M149.141 213.336C145.498 229.247 131.302 241.392 125.164 247.91C123.239 249.954 120.348 256.76 118.954 259.71C118.601 260.457 117.392 255.213 116.826 255.688C116.102 256.294 115.233 256.278 113.827 255.886C112.656 255.013 112.216 253.26 112.901 251.853C112.976 251.698 114.667 248.024 115.98 246.012C119.113 241.22 124.926 237.528 124.926 237.528C131.695 230.532 142.153 217.244 143.099 210.948C143.224 210.105 143.59 205.165 138.343 190.787C135.343 182.572 132.07 175.593 132.038 175.522C130.449 172.147 131.155 168.281 133.521 165.682C137.583 172.996 152.254 199.749 149.141 213.336Z" fill="#D0ABB1"/>
</g>
<path fill-rule="evenodd" clip-rule="evenodd" d="M159.979 213.478C159.005 219.977 154.888 227.841 147.393 237.518C142.418 243.945 134.942 251.095 134.599 251.422C133.953 251.991 133.18 252.734 132.53 253.413C131.679 254.301 131.088 255.018 130.775 255.543C129.658 257.405 127.942 260.929 127.934 260.948C127.524 261.787 126.689 262.309 125.753 262.309C125.388 262.309 125.032 262.227 124.697 262.064C123.652 261.555 123.138 260.386 123.409 259.301C123.636 258.76 125.078 255.338 126.367 252.968C127.802 250.329 130.527 247.599 130.554 247.572C130.885 247.241 130.886 246.705 130.556 246.375C130.226 246.044 129.69 246.043 129.359 246.373C129.24 246.491 126.434 249.301 124.879 252.16C123.811 254.125 122.675 256.706 122.134 257.969L122.131 257.968C122.118 257.987 120.737 259.858 119.374 259.216C118.814 258.953 118.465 258.605 118.304 258.152C118.171 257.774 118.17 257.312 118.295 256.806C118.324 256.765 118.35 256.721 118.372 256.673C118.389 256.637 120.056 252.958 121.458 250.378C122.902 247.723 125.556 244.848 125.583 244.819C125.9 244.476 125.88 243.94 125.537 243.623C125.194 243.305 124.658 243.326 124.341 243.668C124.226 243.792 121.517 246.726 119.971 249.571C119.017 251.325 117.948 253.565 117.335 254.879C116.848 255.169 115.548 255.773 114.734 255.435C114.594 255.378 114.459 255.3 114.333 255.208C113.46 254.556 113.165 253.245 113.663 252.221L113.71 252.122C114.851 249.685 115.937 247.627 116.689 246.474C119.682 241.898 125.324 238.279 125.38 238.242L125.465 238.189L125.535 238.117C132.583 230.83 142.952 217.624 143.936 211.073C144.12 209.836 144.32 204.696 139.138 190.497C136.379 182.941 133.394 176.432 132.824 175.203L132.804 175.162C131.403 172.185 131.93 168.688 134.148 166.251C134.861 165.466 135.718 164.835 136.693 164.376C140.739 162.474 145.581 164.217 147.487 168.263C147.855 169.048 151.176 176.183 154.331 184.806C159.08 197.789 160.927 207.167 159.979 213.478ZM155.922 184.225C152.742 175.534 149.392 168.337 149.018 167.539C146.715 162.652 140.863 160.546 135.971 162.845C134.794 163.4 133.758 164.163 132.895 165.113C130.215 168.057 129.578 172.284 131.265 175.867L131.288 175.916C131.853 177.133 134.811 183.585 137.547 191.078C141.56 202.074 142.595 208.587 142.261 210.823C141.862 213.478 139.464 217.973 135.508 223.482C132.229 228.048 128.076 233.046 124.385 236.87C123.612 237.372 118.294 240.925 115.271 245.549C114.184 247.214 112.865 249.932 112.176 251.405L112.139 251.483C111.284 253.24 111.792 255.424 113.324 256.566C113.562 256.743 113.819 256.888 114.085 256.998C114.898 257.336 115.785 257.253 116.537 257.046C116.472 257.642 116.528 258.208 116.708 258.716C117.018 259.593 117.691 260.295 118.653 260.747C119.759 261.268 120.823 261.053 121.702 260.568C121.916 261.833 122.717 262.982 123.955 263.586C124.524 263.861 125.129 264.002 125.753 264.002C127.342 264.002 128.76 263.115 129.459 261.683C129.475 261.65 131.169 258.177 132.228 256.412C132.47 256.007 133.012 255.357 133.753 254.583C134.376 253.932 135.115 253.222 135.73 252.682L135.754 252.66C135.832 252.586 143.585 245.203 148.732 238.554C156.409 228.642 160.635 220.522 161.654 213.728C162.646 207.132 160.77 197.481 155.922 184.225Z" fill="black"/>
<path fill-rule="evenodd" clip-rule="evenodd" d="M155.127 184.516C155.127 184.516 154.13 187.475 147.637 189.961C146.754 190.299 145.929 190.555 145.167 190.747C140.711 191.87 138.343 190.787 138.343 190.787C135.343 182.572 132.07 175.593 132.038 175.522C131.83 175.082 131.663 174.632 131.533 174.178C131.003 172.338 131.092 170.428 131.707 168.705C132.469 166.567 134.039 164.718 136.24 163.656C136.269 163.639 136.301 163.625 136.332 163.61C140.808 161.507 146.144 163.427 148.251 167.899C148.397 168.209 151.854 175.571 155.127 184.516Z" fill="#EB7D7D"/>
<g style="mix-blend-mode:multiply">
<path fill-rule="evenodd" clip-rule="evenodd" d="M145.167 190.746C140.711 191.87 138.343 190.787 138.343 190.787C135.343 182.572 132.07 175.592 132.039 175.522C131.831 175.082 131.664 174.633 131.533 174.178C131.25 171.971 131.368 170.17 131.707 168.704C132.764 164.14 135.972 162.844 135.972 162.844L135.694 164.093L145.167 190.746Z" fill="#D0ABB1"/>
</g>
<path fill-rule="evenodd" clip-rule="evenodd" d="M139 190.12C139.732 190.331 141.769 190.73 144.96 189.926C145.733 189.732 146.531 189.478 147.334 189.171C152.231 187.296 153.802 185.17 154.208 184.47C151.09 175.998 147.85 169.038 147.487 168.263C145.581 164.216 140.739 162.474 136.693 164.376L136.608 164.418C134.681 165.347 133.224 166.971 132.504 168.989C131.931 170.598 131.876 172.311 132.346 173.944C132.468 174.366 132.622 174.775 132.804 175.161L132.824 175.203C133.385 176.411 136.28 182.725 139 190.12ZM141.35 192.101C139.217 192.101 138.062 191.589 137.991 191.557L137.669 191.41L137.547 191.078C134.812 183.585 131.853 177.133 131.288 175.915L131.265 175.867C131.052 175.416 130.865 174.92 130.719 174.411C130.15 172.437 130.216 170.365 130.91 168.42C131.777 165.988 133.531 164.03 135.851 162.904C135.89 162.883 135.93 162.864 135.971 162.845C140.863 160.546 146.715 162.652 149.018 167.539C149.392 168.336 152.742 175.534 155.922 184.225L156.024 184.504L155.929 184.786C155.814 185.127 154.613 188.196 147.94 190.751C147.074 191.082 146.211 191.357 145.373 191.567C143.787 191.967 142.44 192.101 141.35 192.101Z" fill="black"/>
<path fill-rule="evenodd" clip-rule="evenodd" d="M114.386 164.224C114.386 164.795 114.309 165.37 114.161 165.946C114.113 166.13 114.059 166.311 113.996 166.492C113.726 167.302 113.317 168.107 112.784 168.888C109.954 173.037 103.676 176.513 96.3246 176.513C90.3614 176.513 83.3241 175.476 79.9906 172.396C79.0592 171.535 78.5681 170.402 78.3165 169.202C77.9536 167.479 78.0794 165.615 78.0794 164.224C78.0794 158.405 86.2078 153.686 96.2327 153.686C106.26 153.686 114.386 158.405 114.386 164.224Z" fill="white"/>
<g style="mix-blend-mode:multiply">
<path fill-rule="evenodd" clip-rule="evenodd" d="M114.161 165.946C114.222 165.905 114.28 165.869 114.333 165.83L113.997 166.492L112.785 168.888C109.954 173.037 103.677 176.514 96.3248 176.514C90.3616 176.514 83.3243 175.476 79.9907 172.396C79.0593 171.536 78.5682 170.402 78.3167 169.202L80.8543 167.824C80.8543 167.824 92.9307 171.847 104.867 169.026C110.484 167.696 113.036 166.664 114.161 165.946Z" fill="#D0ABB1"/>
</g>
<path fill-rule="evenodd" clip-rule="evenodd" d="M96.2328 154.532C91.5314 154.532 87.124 155.588 83.8221 157.505C80.6649 159.337 78.9262 161.724 78.9262 164.225C78.9262 164.5 78.9214 164.794 78.9163 165.102C78.8957 166.335 78.8728 167.734 79.1452 169.028C79.3963 170.225 79.861 171.124 80.5654 171.775C83.2035 174.212 89.0946 175.667 96.3247 175.667C103.792 175.667 109.621 172.023 112.085 168.411C112.576 167.691 112.949 166.955 113.194 166.223C113.247 166.07 113.295 165.912 113.342 165.73C113.473 165.223 113.539 164.714 113.539 164.225C113.539 161.724 111.801 159.337 108.644 157.505C105.343 155.588 100.935 154.532 96.2328 154.532ZM96.3247 177.36C92.6537 177.36 83.6573 176.937 79.4159 173.018C78.4576 172.132 77.8091 170.907 77.488 169.376C77.1765 167.896 77.2023 166.331 77.2232 165.074C77.228 164.776 77.2328 164.491 77.2328 164.225C77.2328 161.096 79.271 158.19 82.9715 156.041C86.5277 153.977 91.2372 152.84 96.2328 152.84C101.229 152.84 105.939 153.977 109.495 156.041C113.195 158.19 115.233 161.095 115.233 164.225C115.233 164.856 115.148 165.505 114.981 166.156C114.921 166.385 114.861 166.584 114.797 166.77C114.506 167.639 114.063 168.515 113.484 169.365C111.966 171.59 109.529 173.597 106.622 175.017C103.483 176.55 99.922 177.36 96.3247 177.36Z" fill="black"/>
<path fill-rule="evenodd" clip-rule="evenodd" d="M86.5216 170.925C86.5216 171.44 86.1036 171.858 85.5881 171.858C85.0723 171.858 84.6543 171.44 84.6543 170.925C84.6543 170.41 85.0723 169.992 85.5881 169.992C86.1036 169.992 86.5216 170.41 86.5216 170.925Z" fill="black"/>
<path fill-rule="evenodd" clip-rule="evenodd" d="M87.2963 167.454C87.2963 167.969 86.8783 168.387 86.3627 168.387C85.847 168.387 85.4292 167.969 85.4292 167.454C85.4292 166.938 85.847 166.521 86.3627 166.521C86.8783 166.521 87.2963 166.938 87.2963 167.454Z" fill="black"/>
<path fill-rule="evenodd" clip-rule="evenodd" d="M88.4957 171.633C88.1006 171.633 87.7774 171.318 87.7702 170.922C87.7687 170.839 87.7518 168.834 89.3941 166.407C89.6189 166.076 90.0696 165.988 90.4019 166.213C90.7339 166.437 90.8209 166.888 90.5964 167.22C89.2284 169.24 89.2214 170.885 89.2216 170.901C89.2238 171.3 88.9035 171.627 88.5044 171.633H88.4957Z" fill="black"/>
<path fill-rule="evenodd" clip-rule="evenodd" d="M93.0605 157.853C93.4534 155.115 96.1229 153.232 99.0233 153.647C101.924 154.063 103.956 156.619 103.563 159.358" fill="white"/>
<path fill-rule="evenodd" clip-rule="evenodd" d="M103.564 160.204C103.524 160.204 103.484 160.201 103.443 160.196C102.98 160.129 102.659 159.701 102.725 159.238C103.051 156.966 101.337 154.834 98.903 154.485C96.4696 154.135 94.2247 155.701 93.8986 157.973C93.8325 158.436 93.4039 158.756 92.9403 158.691C92.4776 158.625 92.1561 158.196 92.2226 157.733C92.6808 154.537 95.7853 152.328 99.1435 152.81C102.501 153.291 104.86 156.282 104.402 159.478C104.341 159.9 103.979 160.204 103.564 160.204Z" fill="black"/>
<path fill-rule="evenodd" clip-rule="evenodd" d="M100.362 159.282C100.056 159.282 99.7718 159.087 99.6719 158.781C99.513 158.291 99.1678 157.456 98.6433 157.356C98.0201 157.238 97.0876 158.069 96.7586 158.467C96.5033 158.775 96.0456 158.819 95.737 158.564C95.428 158.309 95.3842 157.852 95.6397 157.543C95.803 157.345 97.2852 155.621 98.9147 155.931C99.8744 156.114 100.594 156.921 101.053 158.333C101.176 158.713 100.968 159.123 100.587 159.247C100.512 159.271 100.436 159.282 100.362 159.282Z" fill="black"/>
<path fill-rule="evenodd" clip-rule="evenodd" d="M92.7686 157.348C90.7805 160.11 83.5903 157.858 81.655 158.79C81.655 158.79 82.7848 162.549 80.2737 167.582C79.8963 168.342 79.4342 169.13 78.8754 169.937C78.7448 170.128 78.7375 170.379 78.8706 170.57C79.381 171.308 81.0333 173.155 85.6466 175.172C85.9079 175.285 86.1812 175.401 86.4643 175.517C86.4643 175.517 86.1353 175.636 85.5837 175.79H85.5813C85.3732 175.851 85.1337 175.914 84.8701 175.979C84.1443 176.156 83.2226 176.34 82.2211 176.441C80.6414 176.601 78.8633 176.557 77.3417 175.958C73.2122 174.33 69.1771 167.341 74.2282 159.2C74.671 158.485 75.1862 157.759 75.7789 157.027C79.8721 151.962 81.4833 149.278 88.6367 148.362C99.4672 146.972 102.779 154.174 102.779 154.174C102.779 154.174 96.8422 151.69 92.7686 157.348Z" fill="#EB7D7D"/>
<g style="mix-blend-mode:multiply">
<path fill-rule="evenodd" clip-rule="evenodd" d="M85.6466 175.172C85.6272 175.472 85.5982 175.689 85.5837 175.791H85.5813C85.5764 175.834 85.5716 175.856 85.5716 175.856L84.8701 175.979L82.2211 176.441C80.6414 176.601 78.8633 176.557 77.3417 175.957C73.2122 174.33 69.1771 167.34 74.2282 159.2C73.9694 160.873 73.5606 166.543 79.7003 167.479C79.8987 167.508 80.0898 167.544 80.2737 167.582C79.8963 168.342 79.4342 169.13 78.8754 169.937C78.7448 170.128 78.7375 170.38 78.8706 170.571C79.381 171.308 81.0333 173.155 85.6466 175.172Z" fill="#D0ABB1"/>
</g>
<path fill-rule="evenodd" clip-rule="evenodd" d="M92.3678 156.603L92.3671 156.603C90.845 157.423 88.3325 157.58 86.0244 157.613C84.4988 157.635 83.3069 157.625 82.197 157.818C81.9745 157.132 81.6648 156.343 81.2253 155.455C81.0179 155.037 80.5099 154.865 80.0909 155.072C79.6719 155.279 79.5004 155.787 79.7077 156.206C80.7683 158.348 80.9916 159.819 81.0378 160.411C81.0429 160.499 81.0467 160.591 81.0496 160.686C81.0496 160.694 81.0494 160.702 81.0494 160.704C81.0487 160.717 81.0513 160.728 81.0513 160.741C81.092 162.212 80.8566 164.517 79.5154 167.206C79.1421 167.957 78.6924 168.714 78.1762 169.46C77.8472 169.941 77.8467 170.582 78.1742 171.052C78.765 171.906 80.275 173.522 83.948 175.319C83.3294 175.446 82.7225 175.54 82.1358 175.599C80.3432 175.78 78.8347 175.636 77.6522 175.17C75.7261 174.411 74.0339 172.446 73.2365 170.041C72.4834 167.771 72.169 164.125 74.9483 159.646C75.3777 158.951 75.8787 158.25 76.4375 157.559C76.753 157.168 77.0535 156.792 77.3433 156.43C80.7634 152.152 82.4801 150.004 88.7444 149.201C89.6676 149.083 90.5317 149.029 91.3407 149.029C97.4505 149.029 100.39 152.105 101.484 153.659C94.9007 150.883 93.6292 155.926 92.3678 156.603ZM103.548 153.821C103.402 153.504 99.8454 146.071 88.5289 147.522C81.585 148.412 79.4905 151.033 76.0202 155.374C75.7324 155.734 75.4336 156.108 75.1206 156.495C74.5172 157.241 73.9746 158.001 73.5087 158.754C71.0714 162.682 70.404 166.88 71.629 170.574C72.5802 173.442 74.6503 175.807 77.0312 176.745C78.0821 177.158 79.3144 177.367 80.7093 177.367C81.2199 177.367 81.7531 177.339 82.3064 177.283C83.1971 177.193 84.127 177.031 85.0741 176.8C85.301 176.744 85.511 176.69 85.6997 176.637L85.8122 176.605C86.3867 176.444 86.7368 176.319 86.7513 176.313L88.8182 175.569L86.7859 174.735C86.5084 174.62 86.2404 174.507 85.9859 174.397C81.8165 172.574 80.2046 170.914 79.6864 170.251C80.1986 169.496 80.6507 168.726 81.0315 167.96C82.9922 164.03 82.8546 160.821 82.6368 159.372C83.4581 159.221 84.7175 159.203 85.9453 159.185C88.4471 159.149 93.1589 158.233 93.1695 158.094C93.3437 155.841 97.3462 152.073 103.006 154.989L103.963 154.723L103.548 153.821Z" fill="black"/>
<path fill-rule="evenodd" clip-rule="evenodd" d="M118.793 156.457C116.803 156.656 112.63 156.804 109.273 156.897C112.436 158.793 114.386 161.376 114.386 164.225C114.386 164.795 114.309 165.37 114.161 165.946C114.113 166.13 114.059 166.311 113.997 166.492C113.907 166.76 113.797 167.027 113.678 167.293C116.404 167.571 119.571 167.891 121.049 168.03C128.732 168.752 124.139 155.923 118.793 156.457Z" fill="white"/>
<g style="mix-blend-mode:multiply">
<path fill-rule="evenodd" clip-rule="evenodd" d="M114.993 164.159L122.751 164.864C122.751 164.864 121.786 167.053 120.227 167.535C118.667 168.017 113.677 167.293 113.677 167.293L114.993 164.159Z" fill="#D0ABB1"/>
</g>
<path fill-rule="evenodd" clip-rule="evenodd" d="M114.865 166.563C117.961 166.878 120.065 167.088 121.128 167.188C122.459 167.313 123.377 166.983 123.855 166.207C124.672 164.886 124.254 162.237 122.884 160.047C121.723 158.192 120.226 157.165 118.877 157.299C117.334 157.453 114.5 157.576 111.807 157.666C114.033 159.564 115.232 161.834 115.232 164.224C115.232 164.856 115.148 165.505 114.981 166.156C114.942 166.303 114.904 166.437 114.865 166.563ZM121.658 168.906C121.44 168.906 121.211 168.895 120.969 168.872C119.781 168.761 117.298 168.512 113.592 168.135L112.426 168.016L112.905 166.947C113.031 166.666 113.122 166.436 113.194 166.224C113.247 166.07 113.294 165.912 113.342 165.73C113.473 165.222 113.539 164.714 113.539 164.224C113.539 161.785 111.869 159.44 108.837 157.622L106.35 156.131L109.249 156.051C112.466 155.961 116.718 155.814 118.709 155.615C120.712 155.416 122.81 156.736 124.319 159.15C125.746 161.43 126.66 164.889 125.297 167.096C124.771 167.947 123.721 168.906 121.658 168.906Z" fill="black"/>
<path fill-rule="evenodd" clip-rule="evenodd" d="M127.874 159.666C128.848 162.27 129.291 169.521 123.186 171.613C120.807 172.429 117.588 171.309 117.463 167.62C117.463 167.62 118.702 167.703 119.935 167.978C119.986 167.989 123.644 167.211 123.754 163.519C123.923 157.806 118.793 156.457 118.793 156.457C118.868 155.155 124.494 150.635 127.874 159.666Z" fill="#EB7D7D"/>
<g style="mix-blend-mode:multiply">
<path fill-rule="evenodd" clip-rule="evenodd" d="M118.46 168.224C118.46 168.224 117.523 169.107 119.746 170.963C121.643 172.547 125.853 169.697 125.853 169.697C122.54 169.328 123.264 166.21 123.264 166.21C123.264 166.21 122.067 167.53 120.689 167.875C119.311 168.219 118.46 168.224 118.46 168.224Z" fill="#D0ABB1"/>
</g>
<path fill-rule="evenodd" clip-rule="evenodd" d="M118.457 168.634C118.664 169.406 119.078 170.019 119.683 170.436C120.571 171.047 121.808 171.191 122.912 170.813C124.689 170.204 125.986 169.058 126.765 167.408C128.027 164.739 127.629 161.426 127.081 159.963C125.845 156.661 124.2 154.951 122.325 155.019C121.342 155.055 120.513 155.571 120.042 156.016C122.074 156.951 124.727 159.276 124.6 163.544C124.55 165.215 123.849 166.63 122.573 167.634C121.593 168.405 120.233 168.906 119.761 168.806C119.299 168.703 118.835 168.628 118.442 168.576C118.447 168.595 118.452 168.615 118.457 168.634ZM128.891 160.078C129.416 162.043 129.616 165.34 128.297 168.131C127.315 170.209 125.687 171.651 123.461 172.414C121.859 172.963 120.044 172.739 118.723 171.83C117.426 170.936 116.678 169.452 116.616 167.649L116.585 166.715L119.933 167.112C120.492 166.957 122.828 166.151 122.907 163.494C123.054 158.549 118.757 157.324 118.574 157.274L117.911 157.095L117.948 156.408C118.013 155.285 119.714 153.683 121.73 153.379C123.39 153.128 126.497 153.572 128.667 159.37C128.746 159.579 128.821 159.817 128.891 160.078Z" fill="black"/>
<path fill-rule="evenodd" clip-rule="evenodd" d="M294.515 176.147L301.702 170.273L311.611 175.17L311.503 183.224L306.051 188.344L294.515 176.147Z" fill="white"/>
<g style="mix-blend-mode:multiply">
<path fill-rule="evenodd" clip-rule="evenodd" d="M306.482 179.073L302.324 184.555L306.051 188.344L309.221 184.39C309.221 184.39 306.54 181.554 306.482 179.073Z" fill="#D0ABB1"/>
</g>
<path fill-rule="evenodd" clip-rule="evenodd" d="M295.755 176.227L306.086 187.149L310.66 182.853L310.758 175.692L301.816 171.273L295.755 176.227ZM306.016 189.538L293.274 176.068L301.588 169.273L312.465 174.648L312.344 183.594L306.016 189.538Z" fill="black"/>
<path fill-rule="evenodd" clip-rule="evenodd" d="M313.239 158.244C315.597 158.013 317.75 158.863 318.29 159.441C319.228 160.444 327.436 169.977 328.73 171.321C330.027 172.663 348.113 190.567 342.966 194.045C337.818 197.523 331.598 192.465 328.427 190.299C324.636 187.706 320.755 185.273 317.538 185.343C316.021 185.377 311.513 186.664 309.914 186.242C308.316 185.819 306.981 185.096 306.482 182.011C305.982 178.927 307.569 176.691 307.569 176.691C307.569 176.691 302.972 177.115 300.998 174.002C300.823 173.726 300.689 173.454 300.59 173.189C299.601 170.509 302.309 168.402 304.018 166.993C305.896 165.444 304.972 165.482 308.266 161.049C309.663 159.17 311.506 158.417 313.239 158.244Z" fill="#EB7D7D"/>
<g style="mix-blend-mode:multiply">
<path fill-rule="evenodd" clip-rule="evenodd" d="M344.712 192.55C344.617 193.488 344.18 194.247 343.439 194.745C338.26 198.246 332.362 194.097 328.84 191.619C328.523 191.395 328.225 191.186 327.95 190.998C324.497 188.636 320.564 186.124 317.557 186.189C317.063 186.201 316.091 186.385 315.065 186.581C312.62 187.045 310.803 187.352 309.697 187.06C309.615 187.038 309.533 187.016 309.455 186.992L308.708 185.802L306.545 182.364C306.545 182.364 306.922 180.609 307.237 180.677C309.254 181.107 312.585 181.508 316.71 180.841C323.631 179.724 329.224 188.039 335.655 190.553C338.628 191.716 340.93 191.087 342.544 190.072C342.798 189.915 343.035 189.745 343.253 189.576C343.495 189.385 343.715 189.192 343.913 189.001C344.513 190.359 344.811 191.566 344.712 192.55Z" fill="#D0ABB1"/>
</g>
<path fill-rule="evenodd" clip-rule="evenodd" d="M343.028 192.381C342.982 192.821 342.812 193.128 342.491 193.345C338.279 196.191 332.981 192.463 329.815 190.234C329.491 190.007 329.185 189.792 328.905 189.601C325.068 186.977 321.028 184.419 317.518 184.497C316.884 184.511 315.895 184.7 314.748 184.918C313.144 185.222 310.948 185.64 310.13 185.423C309.341 185.215 308.65 184.959 308.127 184.212C307.771 183.704 307.495 182.971 307.319 181.876C307.251 181.458 307.227 181.057 307.237 180.677C307.278 178.62 308.25 177.195 308.26 177.181L309.106 175.99L311.846 172.37C312.128 171.997 312.054 171.466 311.681 171.184C311.308 170.902 310.777 170.976 310.495 171.349L307.078 175.864C306 175.873 303.082 175.691 301.714 173.55C301.576 173.332 301.464 173.112 301.385 172.897C300.693 171.023 302.408 169.413 304.384 167.788L304.557 167.645C305.669 166.727 305.938 166.253 306.421 165.39C306.821 164.679 307.423 163.603 308.947 161.553C310.028 160.098 311.499 159.269 313.321 159.087C315.549 158.867 317.392 159.718 317.673 160.018C318.055 160.427 319.782 162.414 321.611 164.515C324.304 167.607 327.354 171.113 328.121 171.908C328.189 171.978 328.303 172.094 328.455 172.249C336.015 179.93 341.017 186.293 342.544 190.072C342.922 191.005 343.088 191.781 343.028 192.381ZM343.913 189.001C343.294 187.596 342.35 186.025 341.192 184.371C338.183 180.068 333.717 175.182 329.662 171.062C329.515 170.912 329.405 170.801 329.34 170.736C328.602 169.969 325.436 166.328 322.889 163.405C320.97 161.198 319.311 159.295 318.909 158.865C318.184 158.086 315.778 157.146 313.157 157.402H313.154C310.87 157.629 308.944 158.717 307.587 160.545C305.998 162.68 305.364 163.814 304.943 164.563C304.498 165.356 304.348 165.625 303.48 166.34L303.308 166.48C301.559 167.919 298.63 170.327 299.798 173.487C299.919 173.816 300.083 174.14 300.284 174.454C301.781 176.814 304.5 177.403 306.187 177.527C305.906 178.216 305.63 179.142 305.558 180.235C305.546 180.406 305.538 180.583 305.538 180.764C305.536 181.204 305.57 181.666 305.647 182.147C306.025 184.485 306.826 186.209 309.455 186.992C309.533 187.016 309.615 187.038 309.697 187.059C310.803 187.352 312.619 187.045 315.065 186.581C316.09 186.385 317.063 186.201 317.557 186.189C320.564 186.124 324.497 188.636 327.949 190.998C328.225 191.187 328.523 191.395 328.84 191.619C332.362 194.098 338.26 198.246 343.439 194.745C344.179 194.247 344.617 193.488 344.712 192.55C344.811 191.566 344.513 190.36 343.913 189.001Z" fill="black"/>
<path fill-rule="evenodd" clip-rule="evenodd" d="M319.821 153.127C320.843 154.018 321.907 155.012 322.997 156.085C333.968 166.893 347.559 185.594 348.188 186.463L348.228 186.52C349.491 188.327 349.078 190.82 347.282 192.119C345.469 193.43 342.937 193.024 341.625 191.212C341.47 190.999 326.863 170.9 316.288 160.866L316.282 160.862C315.673 160.281 315.075 159.735 314.493 159.227C312.806 157.756 312.632 155.199 314.103 153.514C315.576 151.83 318.136 151.655 319.821 153.127Z" fill="white"/>
<g style="mix-blend-mode:multiply">
<path fill-rule="evenodd" clip-rule="evenodd" d="M340.894 189.245C340.894 189.245 346.126 188.433 346.38 185.083C346.634 181.733 350.798 190.006 347.802 191.834C344.805 193.661 342.672 192.24 340.894 189.245Z" fill="#D0ABB1"/>
</g>
<path fill-rule="evenodd" clip-rule="evenodd" d="M316.834 160.218L316.871 160.253C327.4 170.243 341.706 189.884 342.31 190.716C343.346 192.147 345.354 192.468 346.786 191.433C348.194 190.414 348.529 188.429 347.533 187.005L347.493 186.948C346.931 186.171 333.417 167.538 322.403 156.687C321.303 155.604 320.247 154.621 319.265 153.765L319.264 153.764C318.62 153.201 317.795 152.923 316.94 152.981C316.086 153.039 315.305 153.426 314.741 154.071C314.178 154.715 313.9 155.54 313.958 156.394C314.016 157.247 314.404 158.026 315.049 158.589C315.621 159.088 316.222 159.636 316.834 160.218ZM348.922 186.035C350.444 188.211 349.931 191.248 347.779 192.804C346.718 193.571 345.423 193.879 344.132 193.672C342.84 193.465 341.706 192.768 340.939 191.709C340.34 190.885 326.153 171.406 315.739 161.512L315.739 161.512L315.698 161.474C315.093 160.898 314.5 160.356 313.936 159.865C312.949 159.005 312.358 157.813 312.269 156.508C312.18 155.204 312.605 153.943 313.465 152.958C314.327 151.972 315.52 151.381 316.826 151.293C318.131 151.204 319.393 151.629 320.378 152.489C321.386 153.368 322.467 154.375 323.591 155.482C334.706 166.431 348.3 185.175 348.873 185.967L348.922 186.035Z" fill="black"/>
<path fill-rule="evenodd" clip-rule="evenodd" d="M330.354 185.495C330.648 185.981 330.776 186.571 330.675 187.175C330.397 188.84 330.496 189.762 330.746 190.712C331.093 192.028 330.307 193.376 328.99 193.723C327.674 194.069 326.325 193.284 325.978 191.968C325.505 190.172 325.455 188.495 325.812 186.362C326.037 185.02 327.308 184.114 328.651 184.338C329.389 184.462 329.995 184.901 330.354 185.495Z" fill="white"/>
<g style="mix-blend-mode:multiply">
<path fill-rule="evenodd" clip-rule="evenodd" d="M326.215 188.666C326.215 188.666 326.946 190.592 329.841 189.165C331.237 188.479 330.726 193.209 328.991 193.723C327.695 194.106 324.716 192.377 326.215 188.666Z" fill="#D0ABB1"/>
</g>
<path fill-rule="evenodd" clip-rule="evenodd" d="M328.243 185.151C327.467 185.151 326.779 185.712 326.647 186.502C326.311 188.509 326.356 190.08 326.797 191.752C326.907 192.17 327.173 192.52 327.547 192.738C327.921 192.955 328.356 193.014 328.774 192.904C329.638 192.677 330.155 191.79 329.927 190.928C329.656 189.899 329.538 188.843 329.84 187.035C329.904 186.654 329.829 186.263 329.629 185.933L329.629 185.932C329.385 185.528 328.977 185.251 328.511 185.173C328.421 185.158 328.331 185.151 328.243 185.151ZM328.357 194.651C327.778 194.651 327.207 194.499 326.694 194.2C325.93 193.755 325.385 193.038 325.16 192.183C324.653 190.264 324.599 188.482 324.977 186.223C325.278 184.422 326.989 183.204 328.79 183.504C329.744 183.663 330.578 184.229 331.079 185.057C331.487 185.733 331.641 186.535 331.51 187.315C331.255 188.837 331.338 189.634 331.565 190.496C332.03 192.261 330.972 194.076 329.206 194.541C328.925 194.615 328.64 194.651 328.357 194.651Z" fill="black"/>
<path fill-rule="evenodd" clip-rule="evenodd" d="M321.659 180.981C322.013 181.487 322.194 182.116 322.128 182.778C321.946 184.6 322.119 185.593 322.459 186.603C322.929 188.003 322.175 189.519 320.774 189.989C319.373 190.459 317.856 189.705 317.386 188.305C316.744 186.394 316.57 184.582 316.803 182.246C316.95 180.777 318.261 179.705 319.731 179.852C320.539 179.932 321.228 180.365 321.659 180.981Z" fill="white"/>
<g style="mix-blend-mode:multiply">
<path fill-rule="evenodd" clip-rule="evenodd" d="M317.386 185.262C317.386 185.262 318.682 187.04 321.515 185.349C324.046 183.84 321.718 190.481 320.407 190.156C319.096 189.831 315.887 188.973 317.386 185.262Z" fill="#D0ABB1"/>
</g>
<path fill-rule="evenodd" clip-rule="evenodd" d="M319.464 180.684C318.537 180.684 317.74 181.389 317.645 182.331C317.425 184.539 317.587 186.246 318.189 188.035C318.344 188.498 318.671 188.873 319.108 189.09C319.545 189.308 320.041 189.342 320.504 189.186C320.967 189.031 321.342 188.705 321.559 188.268C321.777 187.831 321.811 187.335 321.656 186.872C321.291 185.786 321.089 184.66 321.285 182.694C321.328 182.259 321.214 181.823 320.965 181.466C320.659 181.029 320.178 180.747 319.647 180.693C319.586 180.687 319.525 180.684 319.464 180.684ZM319.919 190.975C319.382 190.975 318.849 190.852 318.354 190.606C317.511 190.187 316.882 189.465 316.583 188.574C315.901 186.542 315.715 184.625 315.961 182.162C316.153 180.231 317.887 178.818 319.815 179.009C320.839 179.112 321.763 179.653 322.352 180.497C322.835 181.185 323.054 182.025 322.97 182.862C322.802 184.541 322.949 185.406 323.261 186.334C323.561 187.225 323.495 188.179 323.076 189.021C322.657 189.863 321.935 190.491 321.043 190.791C320.675 190.914 320.296 190.975 319.919 190.975Z" fill="black"/>
<path fill-rule="evenodd" clip-rule="evenodd" d="M340.828 124.912L349.773 122.425L356.872 130.893L349.66 134.93L345.021 136.897L340.828 124.912Z" fill="white"/>
<g style="mix-blend-mode:multiply">
<path fill-rule="evenodd" clip-rule="evenodd" d="M343.363 132.126L351.868 128.571L353.453 129.499L350.129 134.676L344.755 136.724L343.363 132.126Z" fill="#D0ABB1"/>
</g>
<path fill-rule="evenodd" clip-rule="evenodd" d="M341.925 125.486L345.522 135.765L349.286 134.169L355.568 130.654L349.474 123.386L341.925 125.486ZM344.52 138.028L339.73 124.34L350.071 121.464L358.178 131.133L349.99 135.709L344.52 138.028Z" fill="black"/>
<path fill-rule="evenodd" clip-rule="evenodd" d="M381.268 152.511L379.812 151.445L364.131 139.961C363.901 139.794 363.647 139.661 363.379 139.567L350.506 135.104C350.519 134.572 350.606 133.962 350.792 133.249C350.956 132.611 351.191 132.045 351.459 131.55C352.464 129.693 353.929 128.818 353.929 128.818C353.929 128.818 349.549 127.357 348.995 123.711C348.946 123.39 348.934 123.085 348.948 122.805C349.123 119.952 352.449 119.113 354.583 118.511C356.924 117.849 356.063 117.51 360.865 114.776C362.9 113.618 364.891 113.671 366.546 114.21C368.797 114.945 370.426 116.589 370.689 117.336C371.144 118.632 374.819 130.66 375.462 132.41C375.905 133.607 380.409 145.038 381.268 152.511Z" fill="#EB7D7D"/>
<g style="mix-blend-mode:multiply">
<path fill-rule="evenodd" clip-rule="evenodd" d="M380.634 148.981L379.812 151.444L364.131 139.96C363.901 139.794 363.647 139.661 363.379 139.567L350.506 135.104C350.519 134.572 350.606 133.962 350.792 133.249C350.956 132.611 351.191 132.045 351.459 131.55L351.51 131.516C351.51 131.516 358.618 132.009 366.221 136.153C373.822 140.297 380.634 148.981 380.634 148.981Z" fill="#D0ABB1"/>
</g>
<path fill-rule="evenodd" clip-rule="evenodd" d="M381.617 149.488C380.594 144.338 378.474 138.069 376.421 132.667C376.346 132.471 376.291 132.325 376.258 132.239C375.89 131.241 374.457 126.634 373.302 122.934C372.435 120.142 371.682 117.732 371.487 117.177C371.136 116.172 369.313 114.344 366.81 113.524L366.807 113.524C364.625 112.813 362.424 113.035 360.446 114.162C358.131 115.478 357.095 116.261 356.407 116.778C355.681 117.325 355.435 117.51 354.352 117.816L354.138 117.876C351.958 118.489 348.307 119.515 348.104 122.878C348.083 123.228 348.103 123.59 348.16 123.959C348.581 126.721 350.832 128.355 352.327 129.146C351.792 129.664 351.167 130.401 350.66 131.372C350.58 131.524 350.503 131.683 350.429 131.849C350.25 132.251 350.095 132.687 349.972 133.159C349.812 133.776 349.7 134.364 349.659 134.93L351.352 135.517C351.331 134.997 351.407 134.369 351.612 133.583C351.718 133.173 351.857 132.795 352.019 132.452C352.381 131.673 352.845 131.062 353.266 130.612C353.271 130.609 353.276 130.607 353.281 130.604L358.01 127.527C358.401 127.272 358.512 126.747 358.257 126.356C358.002 125.964 357.477 125.854 357.085 126.108L354.054 128.081C353.355 127.81 350.262 126.465 349.832 123.706C349.794 123.451 349.781 123.205 349.794 122.976C349.915 120.983 352.134 120.198 354.597 119.506L354.812 119.444C356.201 119.05 356.637 118.725 357.428 118.129C358.079 117.639 359.064 116.896 361.284 115.632C362.861 114.734 364.541 114.567 366.281 115.133C368.41 115.828 369.755 117.348 369.891 117.736C370.076 118.263 370.857 120.777 371.686 123.436C372.906 127.35 374.287 131.786 374.669 132.822C374.703 132.914 374.76 133.066 374.838 133.269C377.802 141.069 379.68 147.527 380.32 151.936L382.175 153.295C382.08 152.127 381.888 150.847 381.617 149.488Z" fill="black"/>
<path fill-rule="evenodd" clip-rule="evenodd" d="M368.278 117.949L368.282 117.955C372.238 127.379 376.016 142.131 377.94 150.193L386.68 156.594C386.755 156.648 386.826 156.706 386.894 156.767C387.241 156.016 387.366 155.155 387.193 154.285L387.179 154.216C386.954 153.169 382.041 130.582 376.348 116.276C375.783 114.855 375.209 113.517 374.632 112.291C373.683 110.266 371.268 109.396 369.241 110.346C367.216 111.297 366.346 113.708 367.297 115.732C367.627 116.432 367.954 117.173 368.278 117.949Z" fill="white"/>
<g style="mix-blend-mode:multiply">
<path fill-rule="evenodd" clip-rule="evenodd" d="M377.087 146.823C377.087 146.823 382.722 150.752 384.753 146.168C386.784 141.584 386.68 156.594 386.68 156.594L378.995 150.966L377.087 146.823Z" fill="#D0ABB1"/>
</g>
<path fill-rule="evenodd" clip-rule="evenodd" d="M367.497 118.275L367.519 118.325L367.519 118.326C371.312 127.379 374.916 141.238 376.887 149.422L378.995 150.966C377.151 143.143 373.225 127.543 369.063 117.628L369.042 117.581C368.716 116.802 368.387 116.059 368.064 115.373C367.7 114.597 367.659 113.728 367.949 112.924C368.24 112.119 368.827 111.476 369.601 111.112C370.377 110.749 371.248 110.708 372.053 110.999C372.859 111.289 373.502 111.876 373.865 112.65L373.866 112.651C374.42 113.83 374.991 115.155 375.562 116.589C381.277 130.951 386.147 153.443 386.349 154.381L386.362 154.449C386.486 155.07 386.415 155.687 386.196 156.239L386.68 156.594C387.013 156.837 387.276 157.142 387.469 157.478C388.031 156.49 388.26 155.31 388.024 154.12L388.007 154.038C387.802 153.082 382.903 130.455 377.135 115.963C376.552 114.498 375.968 113.141 375.399 111.931C374.843 110.747 373.86 109.851 372.628 109.407C371.398 108.963 370.067 109.024 368.882 109.58C367.697 110.136 366.8 111.12 366.356 112.35C365.913 113.58 365.974 114.909 366.532 116.093C366.849 116.769 367.175 117.503 367.497 118.275Z" fill="black"/>
<path fill-rule="evenodd" clip-rule="evenodd" d="M370.599 139.101C370.893 139.588 371.021 140.177 370.92 140.782C370.642 142.446 370.617 143.859 370.868 144.808C371.215 146.125 365.7 142.102 366.057 139.969C366.282 138.627 367.552 137.72 368.896 137.945C369.634 138.069 370.24 138.508 370.599 139.101Z" fill="white"/>
<path fill-rule="evenodd" clip-rule="evenodd" d="M368.488 138.757C367.712 138.757 367.024 139.318 366.892 140.108C366.811 140.591 366.752 141.048 366.716 141.487L370.172 144.534C369.901 143.506 369.783 142.449 370.085 140.642C370.149 140.261 370.074 139.869 369.874 139.539L369.874 139.539C369.63 139.135 369.222 138.858 368.755 138.78C368.665 138.764 368.576 138.757 368.488 138.757ZM364.976 142.627C364.97 141.753 365.053 140.838 365.222 139.829C365.523 138.029 367.234 136.81 369.035 137.11C369.989 137.27 370.823 137.836 371.324 138.664C371.732 139.34 371.886 140.141 371.755 140.921C371.5 142.443 371.582 143.24 371.81 144.103C372.101 145.206 371.797 146.328 371.096 147.129L364.976 142.627Z" fill="black"/>
<path fill-rule="evenodd" clip-rule="evenodd" d="M361.739 134.67C362.033 135.156 362.161 135.746 362.06 136.35C361.781 138.015 361.757 139.427 362.007 140.377C362.355 141.693 356.735 138.054 357.093 135.92C357.318 134.578 358.692 133.289 360.035 133.514C360.774 133.637 361.38 134.076 361.739 134.67Z" fill="white"/>
<path fill-rule="evenodd" clip-rule="evenodd" d="M359.628 134.326C358.852 134.326 358.164 134.887 358.032 135.677C357.951 136.159 357.801 136.998 357.764 137.437L361.077 138.808C361.047 137.889 361.077 137.48 361.225 136.21C361.269 135.826 361.214 135.438 361.014 135.108L361.014 135.107C360.77 134.703 360.361 134.426 359.895 134.348C359.805 134.333 359.716 134.326 359.628 134.326ZM356.101 138.749C356.095 137.875 356.193 136.407 356.362 135.398C356.663 133.597 358.374 132.379 360.175 132.679C361.129 132.838 361.963 133.404 362.464 134.232C362.872 134.908 363.026 135.71 362.895 136.49C362.64 138.012 362.722 138.808 362.949 139.672C363.241 140.774 363.572 140.37 362.871 141.17L356.101 138.749Z" fill="black"/>
<path fill-rule="evenodd" clip-rule="evenodd" d="M218.217 56.9978H162.36C154.826 56.9978 148.719 50.8944 148.719 43.3658V13.7265C148.719 6.1979 154.826 0.0944824 162.36 0.0944824H218.217C225.75 0.0944824 231.858 6.1979 231.858 13.7265V43.3658C231.858 50.8944 225.75 56.9978 218.217 56.9978Z" fill="#EB7D7D"/>
<path fill-rule="evenodd" clip-rule="evenodd" d="M179.131 28.2828C179.131 30.5107 177.324 32.3172 175.094 32.3172C172.865 32.3172 171.058 30.5107 171.058 28.2828C171.058 26.0549 172.865 24.2487 175.094 24.2487C177.324 24.2487 179.131 26.0549 179.131 28.2828Z" fill="#FFD772"/>
<path fill-rule="evenodd" clip-rule="evenodd" d="M175.094 25.095C173.335 25.095 171.904 26.525 171.904 28.2831C171.904 30.0408 173.335 31.4708 175.094 31.4708C176.853 31.4708 178.284 30.0408 178.284 28.2831C178.284 26.525 176.853 25.095 175.094 25.095ZM175.094 33.1632C172.402 33.1632 170.211 30.9738 170.211 28.2831C170.211 25.5918 172.402 23.4026 175.094 23.4026C177.787 23.4026 179.978 25.5918 179.978 28.2831C179.978 30.9738 177.787 33.1632 175.094 33.1632Z" fill="black"/>
<path fill-rule="evenodd" clip-rule="evenodd" d="M194.096 28.3323C194.096 30.5602 192.288 32.3667 190.059 32.3667C187.83 32.3667 186.022 30.5602 186.022 28.3323C186.022 26.1045 187.83 24.2982 190.059 24.2982C192.288 24.2982 194.096 26.1045 194.096 28.3323Z" fill="#FFD772"/>
<path fill-rule="evenodd" clip-rule="evenodd" d="M190.059 25.1445C188.3 25.1445 186.869 26.5746 186.869 28.3327C186.869 30.0904 188.3 31.5204 190.059 31.5204C191.818 31.5204 193.249 30.0904 193.249 28.3327C193.249 26.5746 191.818 25.1445 190.059 25.1445ZM190.059 33.2128C187.366 33.2128 185.176 31.0233 185.176 28.3327C185.176 25.6414 187.366 23.4521 190.059 23.4521C192.751 23.4521 194.942 25.6414 194.942 28.3327C194.942 31.0233 192.751 33.2128 190.059 33.2128Z" fill="black"/>
<path fill-rule="evenodd" clip-rule="evenodd" d="M208.812 28.2547C208.812 30.4826 207.004 32.2891 204.775 32.2891C202.546 32.2891 200.739 30.4826 200.739 28.2547C200.739 26.0268 202.546 24.2206 204.775 24.2206C207.004 24.2206 208.812 26.0268 208.812 28.2547Z" fill="#FFD772"/>
<path fill-rule="evenodd" clip-rule="evenodd" d="M204.775 25.0668C203.016 25.0668 201.585 26.4968 201.585 28.2549C201.585 30.0126 203.016 31.4426 204.775 31.4426C206.534 31.4426 207.965 30.0126 207.965 28.2549C207.965 26.4968 206.534 25.0668 204.775 25.0668ZM204.775 33.135C202.083 33.135 199.892 30.9456 199.892 28.2549C199.892 25.5636 202.083 23.3744 204.775 23.3744C207.468 23.3744 209.658 25.5636 209.658 28.2549C209.658 30.9456 207.468 33.135 204.775 33.135Z" fill="black"/>
<path fill-rule="evenodd" clip-rule="evenodd" d="M108.184 111.923H49.3606C41.8271 111.923 35.7202 105.82 35.7202 98.2914V66.6223C35.7202 59.0934 41.8271 52.9902 49.3606 52.9902H108.184C115.717 52.9902 121.824 59.0934 121.824 66.6223V98.2914C121.824 105.82 115.717 111.923 108.184 111.923Z" fill="#EB7D7D"/>
<path fill-rule="evenodd" clip-rule="evenodd" d="M56.5731 73.9157C56.5731 73.9157 56.0653 92.5243 57.758 94.47C59.4507 96.4153 73.8388 95.9922 73.8388 95.9922L96.3518 95.7383C96.3518 95.7383 98.8063 94.9773 98.7216 93.0318C98.6369 91.0862 98.2985 69.9403 98.2985 69.9403H61.1434C61.1434 69.9403 56.9965 70.7016 56.5731 73.9157Z" fill="white"/>
<path fill-rule="evenodd" clip-rule="evenodd" d="M94.6011 95.066H60.9375C59.3726 95.066 58.0667 93.9421 57.782 92.4598L57.9612 92.6643L71.7895 80.5719C74.259 81.882 76.3975 82.8009 77.5401 82.8009C77.5652 82.8009 77.5899 82.8005 77.6141 82.7995C78.7126 82.7589 80.893 81.8051 83.4193 80.4824L97.7912 92.2342C97.6018 93.8265 96.2444 95.066 94.6011 95.066ZM58.3512 72.2432C60.4237 73.6522 65.6207 77.1257 70.2079 79.7063L57.7227 90.6243V74.1435C57.7227 73.4322 57.9581 72.7761 58.3512 72.2432ZM94.6011 70.9307C95.008 70.9307 95.396 71.0097 95.7545 71.1482C89.6389 75.1103 79.763 81.0264 77.5514 81.1083C76.382 81.146 70.5517 78.4707 59.763 71.156C60.1273 71.0124 60.5226 70.9307 60.9375 70.9307H94.6011ZM97.8159 90.0675L85.0324 79.6147C90.1409 76.8017 95.9715 73.0282 97.1833 72.2381C97.5788 72.772 97.8159 73.4298 97.8159 74.1435V90.0675ZM94.6011 69.2383H60.9375C58.231 69.2383 56.0293 71.4388 56.0293 74.1435V91.8532C56.0293 94.5578 58.231 96.7584 60.9375 96.7584H94.6011C97.3074 96.7584 99.5093 94.5578 99.5093 91.8532V74.1435C99.5093 71.4388 97.3074 69.2383 94.6011 69.2383Z" fill="black"/>
<path fill-rule="evenodd" clip-rule="evenodd" d="M104.254 73.027C104.254 75.9947 101.847 78.4007 98.8773 78.4007C95.9078 78.4007 93.5002 75.9947 93.5002 73.027C93.5002 70.059 95.9078 67.6532 98.8773 67.6532C101.847 67.6532 104.254 70.059 104.254 73.027Z" fill="#FFD772"/>
<path fill-rule="evenodd" clip-rule="evenodd" d="M98.8774 68.3783C96.3127 68.3783 94.2261 70.4636 94.2261 73.027C94.2261 75.59 96.3127 77.6753 98.8774 77.6753C101.442 77.6753 103.529 75.59 103.529 73.027C103.529 70.4636 101.442 68.3783 98.8774 68.3783ZM98.8774 79.1259C95.5124 79.1259 92.7747 76.3898 92.7747 73.027C92.7747 69.6638 95.5124 66.9277 98.8774 66.9277C102.242 66.9277 104.98 69.6638 104.98 73.027C104.98 76.3898 102.242 79.1259 98.8774 79.1259Z" fill="black"/>
<path fill-rule="evenodd" clip-rule="evenodd" d="M98.844 71.0971C98.1177 71.0971 97.5043 71.9503 97.5043 72.9604C97.5043 73.9705 98.1177 74.8237 98.844 74.8237C99.5702 74.8237 100.184 73.9705 100.184 72.9604C100.184 71.9503 99.5702 71.0971 98.844 71.0971ZM98.844 76.0326C97.4382 76.0326 96.2947 74.6545 96.2947 72.9604C96.2947 71.2664 97.4382 69.8883 98.844 69.8883C100.25 69.8883 101.393 71.2664 101.393 72.9604C101.393 74.6545 100.25 76.0326 98.844 76.0326Z" fill="black"/>
</g>
<defs>
<clipPath id="clip0_9_3644">
<rect width="389" height="265" fill="white"/>
</clipPath>
</defs>
</svg>
