<svg width="18" height="18" viewBox="0 0 18 18" fill="none" xmlns="http://www.w3.org/2000/svg">
<path fill-rule="evenodd" clip-rule="evenodd" d="M17.3501 3L15.1391 16.3273C14.979 17.2924 14.1443 18 13.1661 18H4.82879C3.84872 18 3.01304 17.2898 2.85497 16.3226L0.677828 3H17.3501ZM15.4507 4.47258H2.5976L4.13186 14.8937C4.26876 15.8236 5.03177 16.5252 5.95522 16.5965L6.11054 16.6024H12.3695C13.067 16.6024 13.6657 16.1231 13.8272 15.4566L13.8535 15.3209L15.4507 4.47258ZM12.25 0C12.5764 0 12.8541 0.208528 12.9572 0.499635L17.25 0.5C17.6642 0.5 18 0.789228 18 1.20344C18 1.61766 17.6642 1.86746 17.25 1.86746H0.75C0.335786 1.86746 0 1.61766 0 1.20344C0 0.789228 0.335786 0.5 0.75 0.5L5.04281 0.499635C5.14587 0.208528 5.42358 0 5.75 0H12.25Z" fill="#828D9E"/>
</svg>
